<?xml version="1.0" encoding="utf-8"?>
<!-- Generator: Adobe Illustrator 19.1.1, SVG Export Plug-In . SVG Version: 6.00 Build 0)  -->
<svg version="1.1"
	 id="svg2" inkscape:version="0.47 r22583" inkscape:export-filename="C:\Documents and Settings\Compaq_Owner\Desktop\PEC sticks-standing1mm.png" inkscape:export-ydpi="90" sodipodi:docname="paro_AL_calling_wp.svg" inkscape:export-xdpi="90" sodipodi:version="0.32" xmlns:ns1="http://sozi.baierouge.fr" xmlns:dc="http://purl.org/dc/elements/1.1/" xmlns:inkscape="http://www.inkscape.org/namespaces/inkscape" xmlns:sodipodi="http://sodipodi.sourceforge.net/DTD/sodipodi-0.dtd" xmlns:rdf="http://www.w3.org/1999/02/22-rdf-syntax-ns#" xmlns:svg="http://www.w3.org/2000/svg" xmlns:cc="http://creativecommons.org/ns#"
	 xmlns="http://www.w3.org/2000/svg" xmlns:xlink="http://www.w3.org/1999/xlink" x="0px" y="0px" viewBox="172 344 955 105"
	 style="enable-background:new 172 344 955 105;" xml:space="preserve">
<style type="text/css">
	.st0{fill:url(#path6737_11_);}
	.st1{fill:none;stroke:#000000;stroke-width:0.19;}
	.st2{stroke:#000000;stroke-width:0.1;}
	.st3{fill:none;stroke:#000000;stroke-width:0.3;}
	.st4{fill:none;stroke:#000000;stroke-width:0.2353;stroke-linecap:round;}
	.st5{fill:none;stroke:#000000;stroke-width:0.2075;stroke-linecap:round;}
	.st6{fill:none;stroke:#000000;stroke-width:0.2;stroke-linecap:round;stroke-linejoin:round;}
	.st7{fill:url(#path6737_12_);}
	.st8{fill:none;stroke:#000000;stroke-width:0.125;}
	.st9{fill:url(#path6737_13_);}
	.st10{fill:none;stroke:#000000;stroke-width:0.2345;}
	.st11{stroke:#000000;stroke-width:0.1234;}
	.st12{fill:none;stroke:#000000;stroke-width:0.3;stroke-linecap:round;stroke-linejoin:round;}
	.st13{fill:url(#path6737_14_);}
	.st14{fill:url(#path6737_15_);}
	.st15{fill:none;stroke:#000000;stroke-width:0.201;}
	.st16{stroke:#000000;stroke-width:0.1058;}
	.st17{fill:url(#path6737_16_);}
	.st18{fill:url(#path6737_17_);}
	.st19{fill:url(#path6737_18_);}
	.st20{fill:url(#path6737_19_);}
	.st21{fill:none;stroke:#000000;stroke-width:0.1838;stroke-linecap:round;}
	.st22{fill:none;stroke:#000000;stroke-width:0.162;stroke-linecap:round;}
	.st23{fill:url(#path6737_20_);}
	.st24{stroke:#000000;stroke-width:0.2;}
	.st25{fill:none;stroke:#FFFFFF;stroke-width:0.1;stroke-linecap:round;stroke-linejoin:round;stroke-opacity:0.9412;}
	.st26{fill:none;stroke:#FFFFFF;stroke-width:9.000000e-002;stroke-linecap:round;stroke-linejoin:round;stroke-opacity:0.9412;}
	.st27{fill:none;stroke:#000000;stroke-width:0.21;stroke-linecap:round;stroke-linejoin:round;}
	.st28{fill:none;}
	.st29{enable-background:new    ;}
	.st30{fill:#FF6D00;}
	.st31{fill:url(#path6737_21_);}
</style>
<sodipodi:namedview  inkscape:window-y="25" inkscape:guide-bbox="true" inkscape:current-layer="layer3" inkscape:pageshadow="2" inkscape:window-maximized="0" inkscape:window-height="937" inkscape:window-x="0" inkscape:pageopacity="0.0" inkscape:document-units="px" inkscape:window-width="1197" pagecolor="#ffffff" inkscape:zoom="1.4462225" inkscape:cy="42.700671" id="base" bordercolor="#666666" showgrid="false" borderopacity="1.0" showguides="true" inkscape:cx="86.889381">
	</sodipodi:namedview>
<g id="layer3" transform="translate(-6.868 -19.171)" inkscape:label="layer" sodipodi:insensitive="true" inkscape:groupmode="layer">
	<g id="g3842">
		
			<linearGradient id="path6737_11_" gradientUnits="userSpaceOnUse" x1="747.2138" y1="380.2577" x2="751.9068" y2="376.1438" gradientTransform="matrix(3.9092 0 0 -3.9092 -2598.3606 1932.5968)">
			<stop  offset="0" style="stop-color:#000000"/>
			<stop  offset="1" style="stop-color:#000000;stop-opacity:0"/>
		</linearGradient>
		<path id="path6737" class="st0" d="M329.6,450.2c7.2-0.4-7.7,1.5-8.6,1.7c-4.6,0.4,9.8-0.8,14.7-1.2c10.5-0.6-14.1,2-15.5,2.2
			c0.4-1.2,19.2-3.5,14.1-1.5c-8,2.8-6.6,1.9,1.2,1.3c12.7-0.7-2.8,1.4-7.1,2.1c-2.4-0.8,22.2-3.7,10.9-1.3c-0.7,0.7-4.4,1,1,0.1
			c0.7-0.1-1.4,0.3-2.1,0.5c-2.3,0.6-2.4,0.8,0,1s4.9,0.3,7.3,0.5l-3.5,1c-2.5-0.2-4.9-0.3-7.4-0.5c-6.9-0.7,7.1-4.3,8.7-3.2
			c-3.2,0.7-20.7,2.8-11.3,0.7c10.9-1.4,7.6-0.3,0.1,0c-7.5,0.6-10.5,0.9-1.6-2c3.7-1.2-17.8,2.7-6.6,0c4.7-0.6,24.6-2.7,8.5,0
			c-5.8,0.4-26.3,2.3-8-0.9c8.4-1.2,10.7-0.7,1.4,0.4L329.6,450.2L329.6,450.2z"/>
		
			<path id="path4876" sodipodi:nodetypes="ccc" inkscape:transform-center-y="-3.267335" inkscape:transform-center-x="31.396716" class="st1" d="
			M313.5,390.9c-1.1,10.2-4,17.4-4,17.4c3,0.3,14-6.9,14-6.9"/>
		<path id="path4878" sodipodi:nodetypes="csc" class="st1" d="M322.9,424.2c-0.7,25.5-2.3,24.1-2.1,24.7c0.2,0.6,0.4,1.4,0.4,1.4"
			/>
		<path id="path4880" sodipodi:nodetypes="csc" class="st1" d="M324.4,424.6c0,9.2,0.5,21.9,0.1,24.2c-0.1,0.6,4.5,0.7,4.5,0.7"/>
		<path id="path4882" sodipodi:nodetypes="cssc" class="st2" d="M320.7,449.1c-1,1-3.2,1-2.2,1.6c2.1,1.3,1.9,2.7,3.4,1.2
			C323.4,450.3,327,451.7,320.7,449.1z"/>
		<path id="path5757" sodipodi:nodetypes="cssc" class="st2" d="M325.8,448.1c-1,1-2.2,0.4-1.2,1c2.1,1.3,5,2.4,6.4,0.9
			C332.5,448.4,332.1,450.7,325.8,448.1L325.8,448.1z"/>
		
			<path id="path5759" sodipodi:nodetypes="cssc" inkscape:transform-center-y="6.8333093" inkscape:transform-center-x="-2.27052" class="st2" d="
			M343,383.7c-1.4,1.3-1.5,3-1.6,2.1c-0.3-2-3.2-1-1-3C342.7,380.6,345,375.6,343,383.7L343,383.7z"/>
		<path id="path5761" sodipodi:nodetypes="cssc" class="st2" d="M314,388.9c-0.3,1-0.1,3.4-0.5,2.3c-0.9-2.5-3.1-2.9-1.4-4.2
			C313.8,385.6,313.6,381.3,314,388.9L314,388.9z"/>
		
			<path id="path4874" sodipodi:nodetypes="ccc" inkscape:transform-center-y="-29.675758" inkscape:transform-center-x="-15.618263" class="st1" d="
			M341.9,384c-2.2,7-4.7,12.8-5.1,14.4c-5.7,2.4-6.9,2-12.1,3.4"/>
		<path id="path3077" sodipodi:nodetypes="ccssc" class="st3" d="M323,397.6c-0.1,1,0,1.3,0.5,2.5c2.8,7.4,2.3,26.7,0.5,25.8
			c-2.6-1.3,1.4-19.7-0.6-25.8C323.2,399.3,322.9,398.3,323,397.6L323,397.6z"/>
		
			<path id="path3075" sodipodi:start="3.9561603" sodipodi:end="10.226379" sodipodi:cx="452.85715" sodipodi:cy="380.21933" sodipodi:open="true" sodipodi:type="arc" sodipodi:ry="25" sodipodi:rx="12.857142" class="st4" d="
			M317,381.1c1.7-4,5.1-4.4,7.7-0.8s3.3,9.7,1.7,13.7s-5.1,4.4-7.7,0.8C316.1,391.3,315.4,385.3,317,381.1"/>
		
			<path id="path4833" sodipodi:start="3.9561603" sodipodi:end="10.226379" sodipodi:cx="295.71429" sodipodi:cy="372.00504" sodipodi:open="true" sodipodi:type="arc" sodipodi:ry="4.6428571" sodipodi:rx="3.5714285" class="st5" d="
			M318.8,384.5c0.4-0.8,1.2-1,1.9-0.4c0.7,0.6,1,1.7,0.6,2.5s-1.2,1-1.9,0.4C318.8,386.4,318.5,385.3,318.8,384.5"/>
		
			<path id="path4835" sodipodi:start="3.9561603" sodipodi:end="10.226379" sodipodi:cx="295.71429" sodipodi:cy="372.00504" sodipodi:open="true" sodipodi:type="arc" sodipodi:ry="4.6428571" sodipodi:rx="3.5714285" class="st5" d="
			M323.2,383.3c0.4-0.8,1.2-1,1.9-0.4c0.7,0.6,1,1.7,0.6,2.5s-1.2,1-1.9,0.4C323.2,385.2,322.9,384.1,323.2,383.3"/>
		<path id="path4837" sodipodi:nodetypes="css" class="st6" d="M324.8,392.9c0.8,4.7-4.6,2.5-4.3,0.9
			C320.8,391.5,324.6,392,324.8,392.9z"/>
	</g>
</g>
<g>
	
		<linearGradient id="path6737_12_" gradientUnits="userSpaceOnUse" x1="850.2687" y1="351.7796" x2="876.0006" y2="351.7796" gradientTransform="matrix(3.5685 0 0 -3.5685 -2360.887 1688.9697)">
		<stop  offset="0" style="stop-color:#000000"/>
		<stop  offset="1" style="stop-color:#000000;stop-opacity:0"/>
	</linearGradient>
	<path id="path6737_1_" sodipodi:nodetypes="ccccccccccccccccc" class="st7" d="M700.6,429.9c11.8,0.8-12.6,1-14.1,1.1
		c-7.6-0.3,16,0.6,24.2,0.9c17.2,1.1-23.1,0.5-25.3,0.6c0.7-1.9,31.5-2.1,23.2,0.3c-13.1,3.1-10.8,1.9,1.9,2.5
		c7.7,0.5,13.9-0.7,21.2-1c0.3,0.7,0.7,1.3,2.2,2.4c-3.5-0.1-3.6-0.3-10-0.2c-6.8-0.4-23.2,1.2-20.2,0.7c14.2-0.5-31.7,2.6-1.4-4.5
		c6-1.3-29.2,0.9-10.8-1.3c7.6,0,40.3,0.4,13.9,1.6c-9.4-0.4-43.1-1.4-13.2-3c13.8-0.3,17.6,0.9,2.3,1L700.6,429.9L700.6,429.9
		L700.6,429.9z"/>
	<path id="path4876_1_" sodipodi:nodetypes="ccc" class="st1" d="M708.8,378.3c-0.1,0.5-2.3,0.1-2.6,0.4c-5.9,3.3-7.9,8.8-10.1,14.8
		"/>
	
		<path id="path4878_1_" sodipodi:nodetypes="ccc" inkscape:transform-center-y="5.4306282" inkscape:transform-center-x="13.382174" class="st1" d="
		M706.9,402.8c7.4,9.1,4.7,17.8,6,28.1c0.5,0.4,4-0.2,4-0.2"/>
	<path id="path4880_1_" sodipodi:nodetypes="ccc" class="st1" d="M707.3,401.6c-6.7,12.2-11.8,17.4-23,21.3c-0.8,0.3,1,2.9,1,2.9"/>
	
		<path id="path4882_1_" sodipodi:nodetypes="cssc" inkscape:transform-center-y="11.69134" inkscape:transform-center-x="-27.299545" class="st2" d="
		M718.2,429.7c1,1.1,3.7,0.9,2.5,1.2c-2.5,0.6-2.3,0.1-4.5,0.2C713.7,431.1,710.8,430.4,718.2,429.7L718.2,429.7z"/>
	<path id="path5757_1_" sodipodi:nodetypes="cssc" class="st2" d="M685,423.3c-1.2,0-1.7-1.1-1.4-0.1c0.6,2.2,1.8,4.7,3.7,4.7
		C689.3,427.8,687.5,429,685,423.3L685,423.3z"/>
	
		<path id="path5759_1_" sodipodi:nodetypes="cssc" inkscape:transform-center-y="-9.2379958" inkscape:transform-center-x="10.105951" class="st2" d="
		M694.7,394.9c0.1,1-0.4,0.9-0.2,1.5c0.4,1.1,0.9,1.2,1.2-0.6C696,393.7,698.4,390.3,694.7,394.9L694.7,394.9z"/>
	<path id="path4874_1_" sodipodi:nodetypes="cc" class="st1" d="M715.3,399.1c0.2-9.1-2.8-13.4-6.7-21.1"/>
	
		<path id="path5761_1_" sodipodi:nodetypes="cssc" inkscape:transform-center-y="2.7575582" inkscape:transform-center-x="-1.3414904" class="st2" d="
		M717.1,399.8c0.6,0.9,2.4,2.1,1.7,2.1c-0.7,0-3,0.2-3-1.1C715.9,399.4,713.7,397.1,717.1,399.8L717.1,399.8z"/>
	<path id="path3077_1_" sodipodi:nodetypes="ccssc" class="st3" d="M709.2,376c0.1,1.1,0.3,1.7,0.2,2.6c3.5,6.2-1,24.2-3.2,24.7
		c-1.7,0.4,4.9-16.7,3.2-24.7C709.3,377.8,709.4,377.4,709.2,376L709.2,376z"/>
	
		<path id="path3075_1_" sodipodi:start="3.9561603" sodipodi:end="10.226379" sodipodi:cx="452.85715" sodipodi:cy="380.21933" sodipodi:open="true" sodipodi:type="arc" sodipodi:ry="25" sodipodi:rx="12.857142" class="st4" d="
		M707,360.6c2.2-3.3,5.3-3,7,0.6c1.7,3.7,1.3,9.3-0.9,12.6c-2.2,3.3-5.3,3-7-0.6C704.5,369.6,704.8,364,707,360.6"/>
	
		<path id="path4835_1_" sodipodi:start="3.9561603" sodipodi:end="10.226379" sodipodi:cx="295.71429" sodipodi:cy="372.00504" sodipodi:open="true" sodipodi:type="arc" sodipodi:ry="4.6428571" sodipodi:rx="3.5714285" class="st5" d="
		M712.1,363.7c0.5-0.7,1.3-0.7,1.8-0.1s0.6,1.7,0.1,2.3c-0.5,0.7-1.3,0.7-1.8,0.1C711.7,365.4,711.6,364.4,712.1,363.7"/>
	<path id="path4837_1_" sodipodi:nodetypes="cc" class="st8" d="M713.8,372.4c-1.4,0.4-2.5-0.3-3.2-1.2"/>
</g>
<g id="layer3_2_" transform="translate(-83.399 68.258)" inkscape:label="layer" inkscape:groupmode="layer">
	
		<linearGradient id="path6737_13_" gradientUnits="userSpaceOnUse" x1="1163.1008" y1="282.1057" x2="1190.5638" y2="278.8707" gradientTransform="matrix(3.4825 0 0 -3.4825 -2991.7615 1342.3718)">
		<stop  offset="0" style="stop-color:#000000"/>
		<stop  offset="1" style="stop-color:#000000;stop-opacity:0"/>
	</linearGradient>
	<path id="path6737_2_" sodipodi:nodetypes="cccccccccccccccc" class="st9" d="M1105,361.7c7.3,0.8-7.8,1-8.7,1
		c-4.7-0.3,9.9,0.6,14.9,0.9c10.6,1.1-14.3,0.5-15.7,0.6c0.4-1.9,19.5-2,14.3,0.3c-8.1,3-6.6,1.9,1.2,2.4c5.3,0,8.6-0.7,13.1-1
		c0.2,0.6,0.4,1.3,1.3,2.4c-2.2-0.1-1.8,0-5.7,0.1c-6.8,0.5-27.5,2.7-13.8-4c3.7-1.3-18.1,0.9-6.7-1.3c4.7,0,24.9,0.4,8.6,1.6
		c-5.8-0.4-26.7-1.4-8.1-2.9c8.5-0.3,10.9,0.9,1.5,1L1105,361.7L1105,361.7L1105,361.7z"/>
	<path id="path4876_2_" sodipodi:nodetypes="cccc" class="st1" d="M1123.8,349.2c-0.6,0,1.1-2.9,0.7-3.1c-3.5-5.7-3.8-8.3-6.8-9.7
		c-4,0.1-8.8-0.4-14.5,0.6"/>
	
		<path id="path4878_2_" sodipodi:nodetypes="ccsc" inkscape:transform-center-y="-13.969906" inkscape:transform-center-x="3.073081" class="st1" d="
		M1093.5,315.4c5.2-0.5,11.3,2.9,14.3,2.4c0.7-5.8-1.8-15.3-1.4-15.2c0.5,0.2,3.8,0.4,3.8,0.4"/>
	<path id="path4880_2_" sodipodi:nodetypes="ccsc" class="st1" d="M1093.5,315.7c0-4,3.1-9.5,2.3-13.6c-2.1-2.2-5.3-7.4-7.2-8.7
		c-0.6-0.4,3.1-1.7,3.1-1.7"/>
	<path id="path4882_2_" sodipodi:nodetypes="cssc" class="st2" d="M1109.9,303.9c0.8-1,2.9-0.6,1.9-0.9c-2-0.8-1.8-0.3-3.6-0.5
		C1106.3,302.2,1104.1,302.7,1109.9,303.9L1109.9,303.9z"/>
	<path id="path5757_2_" sodipodi:nodetypes="cssc" inkscape:transform-center-y="-5.2078558" class="st2" d="M1089.9,293.4
		c-1.1-0.6-2,0.2-1.3-0.5c1.4-1.6,3.6-3.4,5.2-2.5C1095.6,291.3,1093.4,290.1,1089.9,293.4L1089.9,293.4z"/>
	
		<path id="path5759_2_" sodipodi:nodetypes="cssc" inkscape:transform-center-y="7.5444327" inkscape:transform-center-x="-7.2864975" class="st2" d="
		M1124.5,349.6c-0.8,0.7-0.4,1.1-1,1.4c-1.1,0.6-1.6,0.2-0.3-1.4C1124.5,347.7,1125.5,343.1,1124.5,349.6L1124.5,349.6z"/>
	<g id="g2851" transform="matrix(.72487 .094721 -.17301 .88293 44.079 -5.6892)">
		<path id="path4874_2_" sodipodi:nodetypes="ccc" class="st10" d="M1514.7,228.7c-0.3,8.5,0.5,5.6,0.4,13
			c-1.4,7.8-0.5,1.9-2.4,13.3c-0.5-0.2-4.1,0.2-4.1,0.2"/>
		
			<path id="path5761_2_" sodipodi:nodetypes="cssc" inkscape:transform-center-y="-0.17235711" inkscape:transform-center-x="-1.0354559" class="st11" d="
			M1510.3,255.3c1.4-0.4,3.1,0,2.4-0.5s-2.7-2.1-3.8-0.8C1507.8,255.4,1504.5,255.5,1510.3,255.3L1510.3,255.3z"/>
	</g>
	<path id="path3077_2_" sodipodi:nodetypes="ccssssc" class="st3" d="M1103.1,340.7c-0.5-0.8-0.4-1.2-0.5-2.2
		c0.7-3.3-3-7.7-5.3-13.4c-1.3-3-0.7-7.6-3.2-9.3c-1.5-1,1,8.1,1.6,9.7c0.9,2.6,6,9.5,6.9,13.1
		C1102.8,339.1,1102.8,340.1,1103.1,340.7L1103.1,340.7z"/>
	
		<path id="path3075_2_" sodipodi:start="3.9561603" sodipodi:end="10.226379" sodipodi:cx="452.85715" sodipodi:cy="380.21933" sodipodi:open="true" sodipodi:type="arc" sodipodi:ry="25" sodipodi:rx="12.857142" class="st4" d="
		M1107.7,354.6c3.3,2.1,6,0.5,6-3.4s-2.6-8.8-5.9-10.8c-3.3-2.1-6-0.5-6,3.4C1101.8,347.6,1104.3,352.4,1107.7,354.6"/>
	
		<path id="path4835_2_" sodipodi:start="3.9561603" sodipodi:end="10.226379" sodipodi:cx="295.71429" sodipodi:cy="372.00504" sodipodi:open="true" sodipodi:type="arc" sodipodi:ry="4.6428571" sodipodi:rx="3.5714285" class="st5" d="
		M1110.1,348.5c0.7,0.4,1.4,0.1,1.6-0.7c0.2-0.8-0.2-1.7-0.8-2.1c-0.7-0.4-1.4-0.1-1.6,0.7C1109,347.2,1109.4,348.1,1110.1,348.5"/>
	<path id="path4837_2_" sodipodi:nodetypes="cc" class="st8" d="M1109,341.3c-1.6,0.4-1.6,2.1-1.5,2.6"/>
</g>
<g id="layer3_3_" transform="translate(-78.242 11.239)" inkscape:label="head" inkscape:groupmode="layer">
	
		<path id="path3075_3_" sodipodi:start="3.9561603" sodipodi:end="10.226379" sodipodi:cx="452.85715" sodipodi:cy="380.21933" sodipodi:open="true" sodipodi:type="arc" sodipodi:ry="25" sodipodi:rx="12.857142" class="st4" d="
		M697.6,410.4c2.5,3.9,6.2,3.6,8.2-0.7c2-4.3,1.6-10.9-0.9-14.8s-6.2-3.6-8.2,0.7C694.7,399.8,695.1,406.3,697.6,410.4"/>
	
		<path id="path4835_3_" sodipodi:start="3.9561603" sodipodi:end="10.226379" sodipodi:cx="295.71429" sodipodi:cy="372.00504" sodipodi:open="true" sodipodi:type="arc" sodipodi:ry="4.6428571" sodipodi:rx="3.5714285" class="st5" d="
		M703.3,405c0.5,0.8,1.5,0.8,2.1,0.1c0.6-0.7,0.7-2,0.2-2.7s-1.5-0.8-2.1-0.1C702.8,402.9,702.8,404.2,703.3,405"/>
	<path id="path4837_3_" sodipodi:nodetypes="cc" class="st8" d="M704.7,397.8c-2.9-2.9-4.9-0.4-5.2,0.6"/>
	
		<path id="path4835-2" sodipodi:start="3.9561603" sodipodi:end="10.226379" sodipodi:cx="295.71429" sodipodi:cy="372.00504" sodipodi:open="true" sodipodi:type="arc" sodipodi:ry="4.6428571" sodipodi:rx="3.5714285" class="st5" d="
		M698.6,405c0.5,0.8,1.5,0.8,2.1,0.1c0.6-0.7,0.7-2,0.2-2.7s-1.5-0.8-2.1-0.1C698.2,403,698.1,404.2,698.6,405"/>
	<path id="path3077_3_" sodipodi:nodetypes="ccccc" class="st12" d="M700.7,392.1c-0.4-1.1-0.3-1.5-0.2-2.7
		c-1.1-5-6.4-19.6-6.7-29.2c-4,4.7,3.6,23.6,6.3,29.2C700.2,390.1,700.4,391.2,700.7,392.1L700.7,392.1z"/>
	<path id="path4876_3_" sodipodi:nodetypes="csc" class="st1" d="M694.9,416.1c-6.3-1.2-18.1-2.7-16.9-4.2
		c2.3-3,15.5-19.9,21.5-23.2"/>
	
		<path id="path4878_3_" sodipodi:nodetypes="ccc" inkscape:transform-center-y="-16.81724" inkscape:transform-center-x="3.3950747" class="st1" d="
		M694,360.3c14.9-1,24.8-1,36.2-8.7c0.5-0.4,1.8,5,1.8,5"/>
	<path id="path4880_3_" sodipodi:nodetypes="ccc" class="st1" d="M693.7,360.4c1.4-1.5,28.8-12.4,37.1-12.6c0.4,0.5,1.1,0.7,2.6,1.3
		"/>
	<path id="path4882_3_" sodipodi:nodetypes="cssc" class="st2" d="M730.3,354.2c0.7-1.4-1-3.4-0.1-2.6c1.9,1.7,1.3,1.7,2.5,3.5
		C734.1,357,734.8,359.7,730.3,354.2L730.3,354.2z"/>
	
		<path id="path5757_3_" sodipodi:nodetypes="cssc" inkscape:transform-center-y="-1.3539256" inkscape:transform-center-x="-4.7100162" class="st2" d="
		M730.7,349c0.3-1.4-1-2.2,0.2-1.7c2.4,1.1,5.2,3,4.7,5.1C735.1,354.8,735.7,351.9,730.7,349L730.7,349z"/>
	
		<path id="path5759_3_" sodipodi:nodetypes="cssc" inkscape:transform-center-y="1.9728538" inkscape:transform-center-x="-11.153184" class="st2" d="
		M697.5,415.8c0.7,0.9,1.2,0.4,1.4,1c0.5,1.3-0.1,1.9-1.8,0.6C695.3,416,690,415.5,697.5,415.8L697.5,415.8z"/>
	<g id="g2851_1_" transform="matrix(.72487 .094721 -.17301 .88293 110.3 2.7884)">
		<path id="path4874_3_" sodipodi:nodetypes="cccc" class="st10" d="M895.6,341.2c12.9,1.3,12.1,3.2,20.8,7
			c0.9,4.2,5.8,22.7,5.8,22.7l5.2-0.5"/>
		
			<path id="path5761_3_" sodipodi:nodetypes="cssc" inkscape:transform-center-y="-0.17235954" inkscape:transform-center-x="-1.578883" class="st11" d="
			M928.3,370.5c2.5-0.6,5.7-0.2,4.4-0.8c-1.2-0.6-4.6-2.4-6.7-0.8C923.8,370.7,917.8,371,928.3,370.5L928.3,370.5z"/>
	</g>
	
		<linearGradient id="path6737_14_" gradientUnits="userSpaceOnUse" x1="1076.5712" y1="358.8191" x2="1095.8492" y2="357.7602" gradientTransform="matrix(4.1907 0 0 -4.1907 -3827.7678 1924.6804)">
		<stop  offset="0" style="stop-color:#000000"/>
		<stop  offset="1" style="stop-color:#000000;stop-opacity:0"/>
	</linearGradient>
	<path id="path6737_3_" sodipodi:nodetypes="cccccccccccccccc" class="st13" d="M696.6,417.2c11,0.9-11.8,1.2-13.2,1.3
		c-7-0.3,14.9,0.7,22.5,1.1c16,1.3-21.5,0.6-23.6,0.7c0.6-2.3,29.4-2.4,21.6,0.4c-12.2,3.6-10,2.3,1.8,2.9c8,0,13-0.8,19.7-1.2
		c0.2,0.8,0.6,1.6,2,2.8c-3.3-0.1-2.7,0-8.6,0.2c-10.3,0.6-41.5,3.2-20.9-4.8c5.6-1.5-27.2,1-10.1-1.6c7.1-0.1,37.6,0.5,12.9,1.9
		c-8.8-0.5-40.2-1.7-12.3-3.5c12.8-0.4,16.4,1.1,2.2,1.1L696.6,417.2L696.6,417.2L696.6,417.2z"/>
</g>
<g id="layer3_4_" transform="translate(-54.923 62.545)" inkscape:label="layer" inkscape:groupmode="layer">
	
		<linearGradient id="path6737_15_" gradientUnits="userSpaceOnUse" x1="1071.819" y1="297.4421" x2="1097.5508" y2="297.4421" gradientTransform="matrix(3.339 0 0 -3.339 -2694.3767 1364.5098)">
		<stop  offset="0" style="stop-color:#000000"/>
		<stop  offset="1" style="stop-color:#000000;stop-opacity:0"/>
	</linearGradient>
	<path id="path6737_4_" sodipodi:nodetypes="ccccccccccccccccc" class="st14" d="M913.2,367.9c12.8,0.8-13.6,1-15.3,1
		c-8.2-0.3,17.3,0.6,26.1,0.9c18.6,1-24.9,0.5-27.4,0.5c0.8-1.8,34-1.9,25,0.3c-14.2,2.9-11.6,1.8,2.1,2.3c8.3,0.5,15.1-0.6,22.9-1
		c0.3,0.6,0.7,1.2,2.3,2.3c-3.8,0-3.9-0.3-10.8-0.2c-7.4-0.4-25,1.1-21.8,0.7c15.3-0.5-34.3,2.4-1.5-4.2c6.5-1.2-31.6,0.8-11.7-1.3
		c8.3,0,43.6,0.4,15,1.5c-10.2-0.4-46.6-1.3-14.2-2.8c14.9-0.3,19,0.9,2.5,0.9L913.2,367.9L913.2,367.9L913.2,367.9z"/>
	<path id="path4876_4_" sodipodi:nodetypes="ccc" class="st1" d="M906.6,331.6c0.6,0,1.9-2,2.2-2.3c7.4-3.4,12.3-5.3,19.3-6.8"/>
	
		<path id="path4878_4_" sodipodi:nodetypes="ccc" inkscape:transform-center-y="18.350072" inkscape:transform-center-x="1.1493738" class="st1" d="
		M914.1,341.3c10.6-2.7,17,3.1,26.3,6c0.6-0.3,1.4-3.5,1.4-3.5"/>
	<path id="path4882_4_" sodipodi:nodetypes="cssc" class="st2" d="M941.8,343.7c1.3,0,2.3-1.8,1.9-0.9c-0.6,1.8-0.9,1.5-1.8,2.9
		C940.9,347.2,939.1,348.6,941.8,343.7L941.8,343.7z"/>
	<g id="g2864" transform="matrix(.77822 .49071 -.43828 .87132 44.274 -55)">
		<path id="path4880_4_" sodipodi:nodetypes="ccc" class="st15" d="M1042-131.5c-6.2,8.7-11.1,11.5-21.5,10.7c-0.8-0.1,1,3.1,1,3.1"
			/>
		<path id="path5757_4_" sodipodi:nodetypes="cssc" class="st16" d="M1021.6-120.5c-1.2,0-1.6-1.1-1.3-0.1c0.6,2,1.7,4.4,3.4,4.4
			C1025.6-116.3,1024-115.2,1021.6-120.5L1021.6-120.5z"/>
	</g>
	
		<path id="path5759_4_" sodipodi:nodetypes="cssc" inkscape:transform-center-y="3.2670106" inkscape:transform-center-x="2.5759794" class="st2" d="
		M906.5,330.1c-0.3,0.9-0.7,0.6-0.8,1.2c0,1.2,0.5,1.6,1.4,0.1C908.1,329.7,911.7,328,906.5,330.1L906.5,330.1z"/>
	<path id="path4874_4_" sodipodi:nodetypes="cc" class="st1" d="M928.6,322.7c8.5,0.9,12.8-1.6,20.2-4.6"/>
	
		<path id="path5761_4_" sodipodi:nodetypes="cssc" inkscape:transform-center-y="-1.6967915" inkscape:transform-center-x="-2.8062564" class="st2" d="
		M949.7,316.2c0.7-0.7,1.6-2.5,1.7-1.9c0.1,0.6,0.6,2.7-0.6,2.9C949.5,317.5,947.7,319.7,949.7,316.2z"/>
	<path id="path3077_4_" sodipodi:nodetypes="ccssc" class="st3" d="M928.8,322.1c-0.5,0.9-0.7,1.5-1.1,2.1
		c-0.5,6.6-13.3,18.3-15.3,17.6c-1.5-0.6,12.4-10.5,15.2-17.6C927.9,323.6,928.2,323.3,928.8,322.1L928.8,322.1z"/>
	
		<path id="path3075_4_" sodipodi:start="3.9561603" sodipodi:end="10.226379" sodipodi:cx="452.85715" sodipodi:cy="380.21933" sodipodi:open="true" sodipodi:type="arc" sodipodi:ry="25" sodipodi:rx="12.857142" class="st4" d="
		M934.6,308.1c3.5-2,6-0.7,5.6,3s-3.5,8.3-7,10.3s-6,0.7-5.6-3C928,314.8,931.1,310.2,934.6,308.1"/>
	
		<path id="path4835_4_" sodipodi:start="3.9561603" sodipodi:end="10.226379" sodipodi:cx="295.71429" sodipodi:cy="372.00504" sodipodi:open="true" sodipodi:type="arc" sodipodi:ry="4.6428571" sodipodi:rx="3.5714285" class="st5" d="
		M937.3,312.5c0.7-0.4,1.4-0.1,1.5,0.6s-0.3,1.6-1.1,2c-0.7,0.4-1.4,0.1-1.5-0.6C936.1,313.8,936.5,312.9,937.3,312.5"/>
	<path id="path4837_4_" sodipodi:nodetypes="cc" class="st8" d="M934.4,320.4c-1-0.5-1.1-0.7-1.9-1.1"/>
</g>
<g id="layer3_5_" transform="translate(-176.22 203.78)" inkscape:label="layer" sodipodi:insensitive="true" inkscape:groupmode="layer">
	<g id="g3752">
		
			<linearGradient id="path6737_16_" gradientUnits="userSpaceOnUse" x1="1351.6122" y1="136.3722" x2="1378.0657" y2="136.3722" gradientTransform="matrix(3.2634 0 0 -3.2634 -3668.2117 675.9606)">
			<stop  offset="0" style="stop-color:#000000"/>
			<stop  offset="1" style="stop-color:#000000;stop-opacity:0"/>
		</linearGradient>
		<path id="path6737_5_" class="st17" d="M726.1,228.3c-14.6-0.3,15.6,1.3,17.5,1.4c9.3,0.3-19.8-0.7-29.9-1
			c-21.3-0.5,28.5,1.6,31.4,1.8c-0.9-1-39-2.9-28.7-1.2c16.3,2.3,13.3,1.6-2.4,1.1c-25.8-0.6,5.6,1.2,14.5,1.8
			c4.9-0.7-45.1-3.1-22.1-1.1c1.4,0.6,8.9,0.8-1.9,0.1c-1.4-0.1,2.8,0.2,4.2,0.4c4.7,0.5,4.9,0.6,0,0.9c-4.9,0.2-9.8,0.3-14.8,0.4
			l7.1,0.8c5-0.1,10-0.3,14.9-0.4c13.9-0.6-14.5-3.6-17.7-2.7c6.4,0.6,42,2.3,23,0.6c-22.1-1.2-15.4-0.3-0.3,0
			c15.3,0.5,21.2,0.7,3.3-1.7c-7.4-1,36.2,2.2,13.4,0c-9.5-0.5-49.9-2.2-17.2,0c11.7,0.3,53.4,1.9,16.3-0.7c-17-1-21.8-0.6-2.9,0.3
			L726.1,228.3L726.1,228.3z"/>
		<path id="path4874_5_" sodipodi:nodetypes="ccc" class="st1" d="M721.4,174.2c-6.3-0.6-9.9-0.5-12.6-1.6
			c-5.3-0.9-3.6-0.7-10.8-3.9"/>
		<path id="path4876_5_" sodipodi:nodetypes="cscc" class="st1" d="M721,175.3c0.8,0.1,0.1-1.2,0.4-1.3c6.1-1.9,10.7-1.8,10.7-1.8
			c3-0.3,11.4-1,11.4-1"/>
		<path id="path4878_5_" sodipodi:nodetypes="cssc" class="st1" d="M722.6,193.5c-0.1,5.6-0.3,10.1-0.4,13.6
			c-0.6,14.8-1.4,13.9-1.3,14.4c0.2,0.7,0.3,1.6,0.3,1.6"/>
		
			<path id="path4880_5_" sodipodi:nodetypes="ccsc" inkscape:transform-center-y="-40.116124" inkscape:transform-center-x="-28.41448" class="st1" d="
			M723.4,193.1c3.2-3,5.6-8.7,8.8-12.5c4.6-4.4,8.6-8.2,9.8-9.3c0.6-0.5,1.8-4.8,1.8-4.8"/>
		<path id="path4882_5_" sodipodi:nodetypes="csssssc" class="st2" d="M720.7,226.3c-0.3,1.4,0,2.5-0.5,2.9c-1,0.6-3.5,0.9-2.6,0.3
			c2.3-1.7,0.5-3.6,1.9-5.5c0.6-0.8,0.7-2.2,1.3-2c0.6,0.1,0.5,0,1,0.3C722.5,222.5,720.8,224.6,720.7,226.3L720.7,226.3z"/>
		
			<path id="path5757_5_" sodipodi:nodetypes="cssc" inkscape:transform-center-y="-7.1461683" inkscape:transform-center-x="-6.5734273" class="st2" d="
			M744.1,169.8c-1.6,0.1-2.1,1.5-1.8,0.2c0.6-2.6,1.9-5.7,4.2-5.8C749.1,164.2,746.8,163,744.1,169.8L744.1,169.8z"/>
		
			<path id="path5759_5_" sodipodi:nodetypes="cssc" inkscape:transform-center-y="-2.8567412" inkscape:transform-center-x="-6.2204225" class="st2" d="
			M697.4,168.1c1.3,1,2.7,0.9,1.9,1.1c-1.6,0.4-0.5,2.7-2.4,1.2C694.9,168.7,690.5,167.3,697.4,168.1L697.4,168.1z"/>
		
			<path id="path5761_5_" sodipodi:nodetypes="cssc" inkscape:transform-center-y="-3.9133471" inkscape:transform-center-x="-10.303226" class="st2" d="
			M745.2,171.4c-0.9-0.7-3.7,0.6-2.7,0.1c2.1-0.8,2.5-3.2,3.9-2.1C747.9,170.6,751.4,169.7,745.2,171.4L745.2,171.4z"/>
		<path id="path3077_5_" sodipodi:nodetypes="ccssc" class="st3" d="M721.5,170.9c0.2,0.8,0.1,1.1-0.2,2.1c-1.8,6.4,0,22.3,1.3,21.5
			c2.1-1.3-2.5-16.3-1.3-21.5C721.5,172.4,721.6,171.6,721.5,170.9L721.5,170.9z"/>
		
			<path id="path3075_5_" sodipodi:start="3.9561603" sodipodi:end="10.226379" sodipodi:cx="452.85715" sodipodi:cy="380.21933" sodipodi:open="true" sodipodi:type="arc" sodipodi:ry="25" sodipodi:rx="12.857142" class="st4" d="
			M717.6,157.6c1.4-3.4,4.3-3.7,6.4-0.7c2.2,3,2.8,8.1,1.4,11.5c-1.4,3.4-4.3,3.7-6.4,0.7C716.8,166.1,716.2,161,717.6,157.6"/>
		
			<path id="path4833_1_" sodipodi:start="3.9561603" sodipodi:end="10.226379" sodipodi:cx="295.71429" sodipodi:cy="372.00504" sodipodi:open="true" sodipodi:type="arc" sodipodi:ry="4.6428571" sodipodi:rx="3.5714285" class="st5" d="
			M719.1,160.4c0.3-0.7,1-0.8,1.6-0.4c0.6,0.5,0.8,1.4,0.5,2.1c-0.3,0.7-1,0.8-1.6,0.4C719,162,718.8,161.1,719.1,160.4"/>
		
			<path id="path4835_5_" sodipodi:start="3.9561603" sodipodi:end="10.226379" sodipodi:cx="295.71429" sodipodi:cy="372.00504" sodipodi:open="true" sodipodi:type="arc" sodipodi:ry="4.6428571" sodipodi:rx="3.5714285" class="st5" d="
			M722.8,159.4c0.3-0.7,1-0.8,1.6-0.4c0.6,0.5,0.8,1.4,0.5,2.1c-0.3,0.7-1,0.8-1.6,0.4C722.7,161,722.5,160.1,722.8,159.4"/>
		<path id="path4837_5_" sodipodi:nodetypes="cc" class="st8" d="M724.8,166.8c-0.9,2-2.6,2.9-4.8,0.1"/>
	</g>
</g>
<g id="layer3_6_" transform="translate(-176.22 203.78)" inkscape:label="layer" inkscape:groupmode="layer">
	
		<linearGradient id="path6737_17_" gradientUnits="userSpaceOnUse" x1="1326.5697" y1="136.3722" x2="1353.0225" y2="136.3722" gradientTransform="matrix(3.2634 0 0 -3.2634 -3668.2117 675.9606)">
		<stop  offset="0" style="stop-color:#000000"/>
		<stop  offset="1" style="stop-color:#000000;stop-opacity:0"/>
	</linearGradient>
	<path id="path6737_6_" class="st18" d="M644.4,228.3c-14.6-0.3,15.6,1.3,17.5,1.4c9.3,0.3-19.8-0.7-29.9-1
		c-21.3-0.5,28.5,1.6,31.4,1.8c-0.9-1-39-2.9-28.7-1.2c16.3,2.3,13.3,1.6-2.4,1.1c-25.8-0.6,5.6,1.2,14.5,1.8
		c4.9-0.7-45.1-3.1-22.1-1.1c1.4,0.6,8.9,0.8-1.9,0.1c-1.4-0.1,2.8,0.2,4.2,0.4c4.7,0.5,4.9,0.6,0,0.9c-4.9,0.2-9.8,0.3-14.8,0.4
		l7.1,0.8c5-0.1,10-0.3,14.9-0.4c13.9-0.6-14.5-3.6-17.7-2.7c6.4,0.6,42,2.3,23,0.6c-22.1-1.2-15.4-0.3-0.3,0
		c15.3,0.5,21.2,0.7,3.3-1.7c-7.4-1,36.2,2.2,13.4,0c-9.5-0.5-49.9-2.2-17.2,0c11.7,0.3,53.4,1.9,16.3-0.7c-17-1-21.8-0.6-2.9,0.3
		L644.4,228.3L644.4,228.3z"/>
	<path id="path4874_6_" sodipodi:nodetypes="ccc" class="st1" d="M639.7,174.2c-6.3-0.6-9.9,0-12.6-1.1c-1.8-0.6-5.5-2.5-10.8-4.4"
		/>
	<path id="path4876_6_" sodipodi:nodetypes="cscc" class="st1" d="M639.2,175.3c0.8,0.1,0-1.2,0.4-1.3c6.4-1,11.3-1.2,11.3-1.2
		c3-0.3,10.9-1.7,10.9-1.7"/>
	<path id="path4878_6_" sodipodi:nodetypes="cssc" class="st1" d="M640.8,193.5c-0.1,5.6-0.3,10.1-0.4,13.6
		c-0.6,14.8-1.4,13.9-1.3,14.4c0.2,0.7,0.3,1.6,0.3,1.6"/>
	
		<path id="path4880_6_" sodipodi:nodetypes="cssc" inkscape:transform-center-y="-40.116124" inkscape:transform-center-x="-28.41448" class="st1" d="
		M641.2,194.1c5.9-0.1,14.1-4.9,16.5-2.4c2.3,2.4-15.5,15.4-14.9,16.9c0.9,2.4,0.2,3.7,0.2,3.7"/>
	<path id="path4882_6_" sodipodi:nodetypes="csssssc" class="st2" d="M639,226.3c-0.3,1.4,0,2.5-0.5,2.9c-1,0.6-3.5,0.9-2.6,0.3
		c2.3-1.7,0.5-3.6,1.9-5.5c0.6-0.8,0.7-2.2,1.3-2c0.6,0.1,0.5,0,1,0.3C640.8,222.5,639.1,224.6,639,226.3L639,226.3z"/>
	
		<path id="path5757_6_" sodipodi:nodetypes="csssc" inkscape:transform-center-y="9.7205824" inkscape:transform-center-x="0.61323169" class="st2" d="
		M644.2,208.9c-1.2-1.1-0.7-2.5-1.2-1.3c-1.2,2.3-2,5.2-1.1,7.5c0.4,0.9,1.3-0.5,1.1-0.8C642.4,213.3,643.4,211.4,644.2,208.9
		L644.2,208.9z"/>
	
		<path id="path5759_6_" sodipodi:nodetypes="cssc" inkscape:transform-center-y="-2.8567412" inkscape:transform-center-x="-6.2204225" class="st2" d="
		M615.7,168.1c1.3,1,2.7,0.9,1.9,1.1c-1.6,0.4-0.5,2.7-2.4,1.2C613.2,168.7,608.8,167.3,615.7,168.1L615.7,168.1z"/>
	
		<path id="path5761_6_" sodipodi:nodetypes="cssc" inkscape:transform-center-y="-3.9133471" inkscape:transform-center-x="-10.303226" class="st2" d="
		M663.5,171.4c-0.9-0.7-3.7,0.6-2.7,0.1c2.1-0.8,2.5-3.2,3.9-2.1C666.2,170.6,669.7,169.8,663.5,171.4L663.5,171.4z"/>
	<path id="path3077_6_" sodipodi:nodetypes="ccssc" class="st3" d="M639.8,170.9c0.2,0.8,0.1,1.1-0.2,2.1c-1.8,6.4,0,22.3,1.3,21.5
		c2.1-1.3-2.5-16.3-1.3-21.5C639.7,172.4,639.9,171.6,639.8,170.9L639.8,170.9z"/>
	
		<path id="path3075_6_" sodipodi:start="3.9561603" sodipodi:end="10.226379" sodipodi:cx="452.85715" sodipodi:cy="380.21933" sodipodi:open="true" sodipodi:type="arc" sodipodi:ry="25" sodipodi:rx="12.857142" class="st4" d="
		M635.8,157.6c1.4-3.4,4.3-3.7,6.4-0.7c2.2,3,2.8,8.1,1.4,11.5c-1.4,3.4-4.3,3.7-6.4,0.7C635.1,166.1,634.5,161,635.8,157.6"/>
	
		<path id="path4833_2_" sodipodi:start="3.9561603" sodipodi:end="10.226379" sodipodi:cx="295.71429" sodipodi:cy="372.00504" sodipodi:open="true" sodipodi:type="arc" sodipodi:ry="4.6428571" sodipodi:rx="3.5714285" class="st5" d="
		M637.4,160.4c0.3-0.7,1-0.8,1.6-0.4c0.6,0.5,0.8,1.4,0.5,2.1c-0.3,0.7-1,0.8-1.6,0.4C637.3,162,637.1,161.1,637.4,160.4"/>
	
		<path id="path4835_6_" sodipodi:start="3.9561603" sodipodi:end="10.226379" sodipodi:cx="295.71429" sodipodi:cy="372.00504" sodipodi:open="true" sodipodi:type="arc" sodipodi:ry="4.6428571" sodipodi:rx="3.5714285" class="st5" d="
		M641,159.4c0.3-0.7,1-0.8,1.6-0.4s0.8,1.4,0.5,2.1c-0.3,0.7-1,0.8-1.6,0.4C641,161,640.7,160.1,641,159.4"/>
	<path id="path4837_6_" sodipodi:nodetypes="cc" class="st8" d="M643.1,166.8c-1.6,1-3,1.8-4.6,1.3"/>
</g>
<g id="layer3_7_" transform="translate(-21.834 41.361)" inkscape:label="tete" inkscape:groupmode="layer">
	<g id="g3695">
		
			<linearGradient id="path6737_18_" gradientUnits="userSpaceOnUse" x1="1003.0893" y1="223.5256" x2="1011.4636" y2="225.2424" gradientTransform="matrix(6.8662 0 0 -2.5607 -5928.4341 964.7221)">
			<stop  offset="0" style="stop-color:#000000"/>
			<stop  offset="1" style="stop-color:#000000;stop-opacity:0"/>
		</linearGradient>
		<path id="path6737_7_" sodipodi:nodetypes="cccccccccccccccc" class="st19" d="M967.6,388.4c12.6,0.6-13.5,0.7-15.1,0.8
			c-8.1-0.2,17.1,0.4,25.8,0.7c18.4,0.8-24.7,0.4-27.1,0.4c0.7-1.4,33.7-1.5,24.8,0.2c-14.1,2.2-21.2,2.4,2.6,1.8
			c8.2,0.4,14.3-0.5,22.1-0.7c0.7,0.3,3.9-0.2,2.3,1.7c-3.8,0-3.9-0.2-10.6-0.1c-10.4,0.1-58.5,3.5-23.1-2.7
			c6.4-0.9-31.3,0.6-11.6-1c8.2,0,43.2,0.3,14.8,1.1c-10.1-0.3-46.1-1-14.1-2.2c14.7-0.2,18.8,0.7,2.5,0.7L967.6,388.4L967.6,388.4
			L967.6,388.4z"/>
		<path id="path4876_7_" sodipodi:nodetypes="ccc" class="st1" d="M990.5,348.4c-3.7,4.9-5.6,6.9-5.6,6.9c-1.8,1.3-7.6,3.7-7.6,3.7"
			/>
		
			<path id="path4878_7_" sodipodi:nodetypes="ccsc" inkscape:transform-center-y="-6.2851535" inkscape:transform-center-x="16.68643" class="st1" d="
			M963.1,369.6c-1.8,4-2.8,7.2-4.1,9.5c-2.9,2.1-7.6,5.7-7.6,6c0,0.5,2,1.9,2,1.9"/>
		
			<path id="path4880_7_" sodipodi:nodetypes="ccs" inkscape:transform-center-y="-14.07205" inkscape:transform-center-x="33.073969" class="st1" d="
			M962.9,368.9c-3.2-0.3-7.8-0.2-11.2-1.1c-1.8-1.7-4.2-4.5-5.2-6.1"/>
		<path id="path4882_7_" sodipodi:nodetypes="cssc" class="st2" d="M953.7,386.7c-0.1,1.1,1.1,2.2,0.5,1.8c-1.2-0.8-0.9-1-1.8-2
			C951.4,385.4,950.5,383.6,953.7,386.7L953.7,386.7z"/>
		
			<path id="path5757_7_" sodipodi:nodetypes="cssc" inkscape:transform-center-y="-23.005662" inkscape:transform-center-x="72.453304" class="st2" d="
			M946.2,362.7c0-0.9,1-1.1,0.1-1c-1.8,0.2-3.9,0.8-3.9,2.2C942.4,365.3,941.6,364,946.2,362.7L946.2,362.7z"/>
		
			<path id="path5759_7_" sodipodi:nodetypes="cssc" inkscape:transform-center-y="-5.3269828" inkscape:transform-center-x="-2.098505" class="st2" d="
			M992.3,346.7c-0.1-1,0.4-0.9,0.2-1.5c-0.4-1.2-0.9-1.4-1.2,0.5C991.1,347.7,988.8,350.8,992.3,346.7L992.3,346.7z"/>
		<path id="path4874_7_" sodipodi:nodetypes="ccc" class="st1" d="M977.7,359.1c5.4-1.1,3.7-0.4,8.4-1.2c4.9-1.6,1.1-0.5,8.2-2.7"/>
		
			<path id="path5761_7_" sodipodi:nodetypes="cssc" inkscape:transform-center-y="-0.13406292" inkscape:transform-center-x="-3.5663229" class="st2" d="
			M995.6,354.5c-0.8,0.5-1.8,0.5-1.4,0.8c0.4,0.3,1.4,1.2,2.1,0C997.1,354,999,353.4,995.6,354.5L995.6,354.5z"/>
		<path id="path3077_7_" sodipodi:nodetypes="ccssc" class="st12" d="M978.4,357.5c-0.6,0.3-0.4,0.5-0.8,1.2
			c-1,4.9-13.1,11.4-14.4,10.5c-1-0.7,11.9-5.2,14.4-10.5C977.8,358.2,977.9,357.8,978.4,357.5L978.4,357.5z"/>
		<g id="g3637" transform="matrix(.94740 .32004 -.32004 .94740 25.16 -54.196)">
			
				<path id="path3075_7_" sodipodi:start="3.9561603" sodipodi:end="10.226379" sodipodi:cx="452.85715" sodipodi:cy="380.21933" sodipodi:open="true" sodipodi:type="arc" sodipodi:ry="25" sodipodi:rx="12.857142" class="st4" d="
				M1030.9,74c1.2-2.6,3.5-2.7,5-0.2s1.8,6.5,0.5,9c-1.2,2.6-3.5,2.7-5,0.2C1030,80.6,1029.7,76.6,1030.9,74"/>
			
				<path id="path4835_7_" sodipodi:start="3.9561603" sodipodi:end="10.226379" sodipodi:cx="295.71429" sodipodi:cy="372.00504" sodipodi:open="true" sodipodi:type="arc" sodipodi:ry="4.6428571" sodipodi:rx="3.5714285" class="st5" d="
				M1034.8,75.7c0.3-0.5,0.8-0.6,1.3-0.2c0.4,0.4,0.6,1.1,0.3,1.7c-0.3,0.5-0.8,0.6-1.3,0.2C1034.7,77,1034.6,76.2,1034.8,75.7"/>
			<path id="path4837_7_" sodipodi:nodetypes="cc" class="st8" d="M1037.1,81c-1.1-0.5-1.8,0.8-2.1,1"/>
			<path id="path4837-2" sodipodi:nodetypes="cc" class="st8" d="M1035.1,82c1.1,0.5,1.4,0.6,1.6,0.3"/>
		</g>
	</g>
</g>
<g id="layer3_8_" transform="translate(-205.17 160)" inkscape:label="tete" inkscape:groupmode="layer">
	
		<linearGradient id="path6737_19_" gradientUnits="userSpaceOnUse" x1="1532.1925" y1="90.0945" x2="1540.5677" y2="91.8116" gradientTransform="matrix(6.2768 -0.1157 -4.770000e-002 -2.586 -8642.7441 683.8093)">
		<stop  offset="0" style="stop-color:#000000"/>
		<stop  offset="1" style="stop-color:#000000;stop-opacity:0"/>
	</linearGradient>
	<path id="path6737_8_" sodipodi:nodetypes="cccccccccccccccc" class="st20" d="M978.1,269.6c11.6,0.4-12.3,1-13.8,1
		c-7.4-0.1,15.6,0.2,23.6,0.2c16.8,0.5-22.5,0.8-24.8,0.9c0.7-1.4,30.8-2.1,22.7-0.2c-12.8,2.5-19.3,2.8,2.4,1.7
		c7.5,0.2,13.1-0.7,20.1-1.1c0.7,0.3,3.6-0.3,2.1,1.7c-3.5,0-3.5-0.2-9.7,0c-9.5,0.3-53.5,4.5-21.2-2.4c5.8-1-28.6,1.2-10.6-0.8
		c7.5-0.2,39.5-0.4,13.6,0.9c-9.2-0.2-42.2-0.2-12.9-1.9c13.5-0.5,17.2,0.4,2.3,0.7L978.1,269.6L978.1,269.6L978.1,269.6
		L978.1,269.6z"/>
	<path id="path4876_8_" sodipodi:nodetypes="ccc" class="st1" d="M981.2,240.9c5.9,1.6,8.9,2.9,8.9,2.9l8.8,0.8"/>
	
		<path id="path4878_8_" sodipodi:nodetypes="ccsc" inkscape:transform-center-y="-4.2996227" inkscape:transform-center-x="12.301333" class="st1" d="
		M993.7,251c3.4-0.6,10-1.8,10-1.8s11,5.9,11.3,5.8c0.3-0.1,0.6-2.1,0.6-2.1"/>
	
		<path id="path4880_8_" sodipodi:nodetypes="ccs" inkscape:transform-center-y="-13.579621" inkscape:transform-center-x="11.323274" class="st1" d="
		M993.4,251.6c-0.7,2.9,0,6.1-0.3,9.1c-1.6,3.1-5.2,6-6.1,7.1"/>
	<path id="path4882_8_" sodipodi:nodetypes="cssc" class="st2" d="M1016,251.3c1.4-0.8,1.9-2.9,1.8-2c-0.2,2-0.6,1.8-1.2,3.6
		C1015.9,254.9,1014.4,257.2,1016,251.3z"/>
	<path id="path5757_8_" sodipodi:nodetypes="cssc" inkscape:transform-center-y="-5.0874002" class="st2" d="M986.6,267.8
		c-1.1,0.5-2.1-0.3-1.3,0.5c1.5,1.6,3.8,3.3,5.4,2.5C992.5,269.9,991.5,271.6,986.6,267.8L986.6,267.8z"/>
	
		<path id="path5759_8_" sodipodi:nodetypes="cssc" inkscape:transform-center-y="-5.3269828" inkscape:transform-center-x="-2.098505" class="st2" d="
		M959.2,241.8c-1,0.2-1-0.2-1.5,0c-1.2,0.5-1.3,1,0.6,1C960.4,242.8,963.8,244.4,959.2,241.8L959.2,241.8z"/>
	<path id="path4874_8_" sodipodi:nodetypes="ccc" class="st1" d="M980.8,241c-6.5,1.7-4.4,1.5-10.1,3c-4.8-0.3-1,0.4-10-0.8"/>
	
		<path id="path5761_8_" sodipodi:nodetypes="cssc" inkscape:transform-center-y="22.390305" inkscape:transform-center-x="-12.931808" class="st2" d="
		M1001,244.2c1.2,0.2,2.5-0.2,2,0.3c-0.4,0.4-1.7,1.8-2.8,0.9C999,244.4,996.4,244.5,1001,244.2L1001,244.2z"/>
	<path id="path3077_8_" sodipodi:nodetypes="ccssc" class="st12" d="M979.4,239.9c0.4,0.5,0.6,0.3,1.3,0.5
		c2,2.3,12.9,10.9,12.6,11.4c-1.3,1.9-10.8-8.3-12.6-11.3C980.5,240.1,979.8,240.3,979.4,239.9L979.4,239.9z"/>
	
		<path id="path3075_8_" sodipodi:start="3.9561603" sodipodi:end="10.226379" sodipodi:cx="452.85715" sodipodi:cy="380.21933" sodipodi:open="true" sodipodi:type="arc" sodipodi:ry="25" sodipodi:rx="12.857142" class="st21" d="
		M968.2,237.5c-1.7-2.1-0.8-4,2.1-4.2c2.9-0.2,6.7,1.4,8.4,3.5s0.8,4-2.1,4.2C973.8,241.2,970,239.6,968.2,237.5"/>
	
		<path id="path4835_8_" sodipodi:start="3.9561603" sodipodi:end="10.226379" sodipodi:cx="295.71429" sodipodi:cy="372.00504" sodipodi:open="true" sodipodi:type="arc" sodipodi:ry="4.6428571" sodipodi:rx="3.5714285" class="st22" d="
		M971.6,235.1c-0.3-0.4-0.2-0.9,0.4-1.1c0.6-0.2,1.3,0,1.6,0.5c0.3,0.4,0.2,0.9-0.4,1.1C972.6,235.7,971.9,235.5,971.6,235.1"/>
	<path id="path4837_8_" sodipodi:nodetypes="cc" class="st8" d="M977.4,235.6c-1,0.7,0.1,2.2,0.3,2.6"/>
</g>
<g id="layer3_10_" transform="translate(-385.54 154.38)" inkscape:label="layer" inkscape:groupmode="layer">
	<g id="g4198">
		
			<linearGradient id="path6737_20_" gradientUnits="userSpaceOnUse" x1="1939.9" y1="204.6774" x2="1944.593" y2="200.5633" gradientTransform="matrix(4.8373 0 0 -3.9978 -8621.8633 1090.6326)">
			<stop  offset="0" style="stop-color:#000000"/>
			<stop  offset="1" style="stop-color:#000000;stop-opacity:0"/>
		</linearGradient>
		<path id="path6737_9_" class="st23" d="M770.6,276.5c8.9-0.4-9.5,1.6-10.7,1.7c-5.7,0.4,12.1-0.8,18.2-1.2c13-0.6-17.4,2-19.1,2.2
			c0.5-1.2,23.8-3.6,17.5-1.5c-9.9,2.8-8.1,2,1.4,1.4c15.7-0.8-3.4,1.5-8.8,2.2c-3-0.8,27.5-3.8,13.5-1.3c-0.9,0.7-5.5,1,1.2,0.1
			c0.9-0.1-1.7,0.3-2.6,0.5c-2.9,0.6-3,0.8,0,1s6,0.3,9,0.5l-4.3,1c-3-0.2-6.1-0.3-9.1-0.5c-8.5-0.7,8.8-4.4,10.8-3.3
			c-3.9,0.7-25.6,2.8-14,0.8c13.5-1.4,9.4-0.3,0.2,0c-9.3,0.7-13,0.9-2-2c4.5-1.2-22.1,2.7-8.2,0c5.8-0.6,30.5-2.7,10.5,0
			c-7.1,0.4-32.6,2.3-9.9-0.9c10.4-1.2,13.3-0.7,1.8,0.4L770.6,276.5L770.6,276.5z"/>
		
			<path id="path4876_10_" sodipodi:nodetypes="ccc" inkscape:transform-center-y="-3.2673304" inkscape:transform-center-x="27.543977" class="st1" d="
			M768.6,227.6c-6.2,5.8-12.5,7.9-13.7,9c0.5,0.1,6.7-11.9,7.9-12"/>
		<path id="path4878_10_" sodipodi:nodetypes="cssc" class="st1" d="M767.5,251.4c-0.9,4.5-2.5,8.5-2.6,11.5
			c-0.8,14.4-0.8,12.7-0.6,13.2c0.2,0.6-0.8,1.1-0.8,1.1"/>
		<path id="path4880_10_" sodipodi:nodetypes="csc" class="st1" d="M769,251c2.2,11.6,0.5,22.4,0.1,24.8c-0.1,0.6,4.6,0.7,4.6,0.7"
			/>
		<path id="path4882_10_" sodipodi:nodetypes="cssc" class="st2" d="M764.3,274.7c-1,1-6.8,1.9-5.7,2.4c1.2,0.5-1.1,1.1,3.2,0.7
			C764.1,277.5,764.3,278.4,764.3,274.7L764.3,274.7z"/>
		<path id="path5757_10_" sodipodi:nodetypes="cssc" class="st2" d="M769.1,275.1c-1,1-2.3,0.4-1.2,1c2.1,1.3,5.1,2.4,6.6,0.9
			C776,275.4,775.5,277.7,769.1,275.1L769.1,275.1z"/>
		
			<path id="path5759_10_" sodipodi:nodetypes="cssc" inkscape:transform-center-y="7.6102603" inkscape:transform-center-x="-1.3001931" class="st2" d="
			M768.9,227.7c-1.7,1-2,2.2-2,1.2c0.1-2.1-1.5-1.7,0.2-3.1C769.6,223.8,772.6,220.1,768.9,227.7L768.9,227.7z"/>
		<path id="path5761_10_" sodipodi:nodetypes="cssc" class="st2" d="M790.3,232.4c-1.1,0.1-3.3,0.9-2.4,0c2-1.9,1.7-3.2,3.7-2.5
			C793.1,230.5,797.3,228.9,790.3,232.4L790.3,232.4z"/>
		
			<path id="path4874_10_" sodipodi:nodetypes="ccc" inkscape:transform-center-y="1.9227115" inkscape:transform-center-x="-33.479203" class="st1" d="
			M788.7,232.5c-7.3,1.7-13.7,2.6-15.3,3.1c-5.1-3.8-5.4-5-9.3-8.9"/>
		<path id="path3077_10_" sodipodi:nodetypes="ccssc" class="st3" d="M762.6,223.2c0,1,0.4,1.6,1.1,2.8c4,7,6.5,26.6,4.7,26
			c-2.9-0.9-1.8-20.1-4.7-26C763.3,225.2,762.6,223.9,762.6,223.2L762.6,223.2z"/>
		
			<path id="path3075_10_" sodipodi:start="3.9561603" sodipodi:end="10.226379" sodipodi:cx="452.85715" sodipodi:cy="380.21933" sodipodi:open="true" sodipodi:type="arc" sodipodi:ry="25" sodipodi:rx="12.857142" class="st4" d="
			M752.4,208.6c0.7-4.4,4-5.6,7.4-2.7s5.7,8.8,5,13.2s-4,5.6-7.4,2.7C754,218.9,751.7,213.1,752.4,208.6"/>
		
			<path id="path4833_3_" sodipodi:start="3.9561603" sodipodi:end="10.226379" sodipodi:cx="295.71429" sodipodi:cy="372.00504" sodipodi:open="true" sodipodi:type="arc" sodipodi:ry="4.6428571" sodipodi:rx="3.5714285" class="st5" d="
			M756.4,211.6c0.2-0.9,1-1.3,1.8-0.9c0.8,0.4,1.4,1.4,1.2,2.3c-0.2,0.9-1,1.3-1.8,0.9C756.8,213.5,756.2,212.5,756.4,211.6"/>
		
			<path id="path4835_10_" sodipodi:start="3.9561603" sodipodi:end="10.226379" sodipodi:cx="295.71429" sodipodi:cy="372.00504" sodipodi:open="true" sodipodi:type="arc" sodipodi:ry="4.6428571" sodipodi:rx="3.5714285" class="st5" d="
			M759.7,209c0.2-0.9,1-1.3,1.8-0.9c0.8,0.4,1.4,1.4,1.2,2.3c-0.2,0.9-1,1.3-1.8,0.9C760.1,211,759.5,210,759.7,209"/>
		<path id="path4837_10_" sodipodi:nodetypes="csssc" class="st6" d="M764.6,215.7c-0.2,0.6,0.7,2.9-0.1,3.7c-1.1,1.1-3.9,0.4-4-0.3
			c-0.2-1.6,2.7-3.3,4-3.2L764.6,215.7L764.6,215.7z"/>
		<g id="g4149" transform="matrix(.99880 .049038 -.049038 .99880 -103.2 -3.3394)">
			<path id="path3358" sodipodi:nodetypes="cccc" class="st24" d="M880.7,183.4l2.7,5.8c0.2,0.1,0.6,0.3,0.5-0.5l-2.1-6L880.7,183.4
				L880.7,183.4z"/>
			
				<path id="path3360" sodipodi:start="3.9561603" sodipodi:end="10.226379" sodipodi:cx="515.3653" sodipodi:cy="388.35718" sodipodi:open="true" sodipodi:type="arc" sodipodi:ry="4.9883757" sodipodi:rx="5.469183" d="
				M878.7,182.2c0-0.9,1-1.8,2.2-2s2.1,0.4,2,1.4s-1,1.8-2.2,2C879.6,183.8,878.7,183.2,878.7,182.2"/>
		</g>
		<path id="path4153" sodipodi:nodetypes="cc" class="st25" d="M767.5,225c1.3-0.1,2.1-0.7,2-1.6"/>
		<path id="path4153-8" sodipodi:nodetypes="cc" class="st26" d="M769.1,228c0.9-0.9,0.8-1.6,1.1-2.2"/>
	</g>
	<g id="layer1" transform="matrix(.024610 -.013836 .011737 .016411 432.98 -134.31)">
		<path id="path5065" sodipodi:nodetypes="ccsscccssccccccc" d="M2762.1,23389.4c-11.2,48.9-23.9,129.3-38.1,168.6
			c-41.8-29-68-16.7-63.8,16.4c2.7,21.3,43.1,38.3,69.4-3.5c15.9-25.3,21.1-76.5,30.1-118.4c25,15,48.9,40.4,81.1,44.6
			c-6.7,30.4-18.8,77.6-26.1,109.1c-41.8-29-77.1-16.8-72.9,16.4c2.7,21.3,70.8,36.3,82.2-9.4l41.2-166
			C2839.3,23461.3,2789.8,23407.2,2762.1,23389.4L2762.1,23389.4z M2766.5,23419.3c26.1,15.1,52.4,47.5,82.5,49.1
			c-1,4.5-0.8,10.4-1.8,14.9c-31.2-4.3-57.7-32.2-84.4-46.8C2763.7,23432.4,2765.8,23422.8,2766.5,23419.3L2766.5,23419.3z"/>
	</g>
	<path id="path5065-6" sodipodi:nodetypes="ccssscccsscc" d="M770,211.8c0.2,0.9,0.7,2,0.8,2.9c-1.3-0.1-1.9,0.5-1.2,0.8
		c0.3,0.2,1.3,0.2,1.6-0.6c0-0.1,0-0.2,0-0.3c-0.2-0.8-0.7-2-0.9-2.6c0.8,0.1,1.9,0.4,2.7,0.1c0.2,0.6,0.4,2.1,0.6,2.7
		c-1.3-0.1-2.1,0.5-1.5,0.9c0.4,0.3,1.9-0.2,1.8-0.8l-0.7-3.2C772.6,212.3,770.9,211.9,770,211.8L770,211.8z"/>
	<path id="path5065-6-4" sodipodi:nodetypes="ccsssccccc" d="M782.3,209.4c0.3,1.1,0.9,2.6,1.1,3.7c-1.8-0.1-2.6,0.6-1.7,1.1
		c0.5,0.2,1.8,0.3,2.2-0.7c0-0.1,0-0.3,0-0.4c-0.3-1-1-2.6-1.3-3.5c0.4,0.3,0.7,0.6,0.8,0.6c0-0.1,0.1-0.2,0.1-0.3
		c-0.5-0.2-0.4-0.1-0.9-0.5C782.5,209.3,782.5,209.4,782.3,209.4L782.3,209.4z"/>
	<path id="path5065-6-4-9" sodipodi:nodetypes="ccsssccccc" d="M786.5,207c0.3,1.4,0.9,3.1,1.1,4.5c-1.8-0.1-2.6,0.8-1.7,1.3
		c0.5,0.3,1.8,0.4,2.2-0.9c0-0.1,0-0.4,0-0.5c-0.3-1.3-1-3.2-1.3-4.2c0.4,0.4,0.7,0.8,0.8,0.7c0-0.2,0.1-0.3,0.1-0.4
		c-0.5-0.3-0.4-0.1-0.9-0.6C786.7,206.8,786.7,206.9,786.5,207L786.5,207z"/>
	<path id="path5065-6-4-0" sodipodi:nodetypes="ccsssccccc" d="M790.1,205.1c0.3,1.6,0.9,3.6,1.1,5.1c-1.8-0.1-2.6,0.9-1.7,1.5
		c0.5,0.3,1.8,0.4,2.2-1c0-0.1,0-0.4,0-0.6c-0.3-1.5-1-3.7-1.3-4.9c0.4,0.4,0.7,0.9,0.8,0.8c0-0.2,0.1-0.3,0.1-0.5
		c-0.5-0.3-0.4-0.1-0.9-0.7C790.3,204.8,790.4,205.1,790.1,205.1L790.1,205.1z"/>
</g>
<g>
	<g id="layer3_9_" transform="translate(-252.07 184.99)" inkscape:label="bas" inkscape:groupmode="layer">
		
			<path id="path4878_9_" sodipodi:nodetypes="ccsc" inkscape:transform-center-y="-3.1509092" inkscape:transform-center-x="9.8788842" class="st1" d="
			M1346.1,216.2c3.7-1.8,12.6-5.3,12.6-5.3s6.4,10.3,6.7,10.3c0.4-0.1,3-2.6,3-2.6"/>
		
			<path id="path4880_9_" sodipodi:nodetypes="ccs" inkscape:transform-center-y="-13.579621" inkscape:transform-center-x="11.323274" class="st1" d="
			M1345.6,216.2c-0.9,3.9,0,8.3-0.5,12.4c-2.1,4.2-7.1,8.1-8.3,9.7"/>
		<path id="path4882_9_" sodipodi:nodetypes="cssc" class="st2" d="M1368.2,216.4c2.1-0.3,3.9-2.8,3.3-1.6c-1.2,2.4-1.6,2-3.3,4
			C1366.4,220.9,1363.3,223.1,1368.2,216.4L1368.2,216.4z"/>
		<path id="path5757_9_" sodipodi:nodetypes="cssc" inkscape:transform-center-y="-5.0874002" class="st2" d="M1338.4,237.9
			c-1.5,0.7-2.8-0.4-1.8,0.7c2.1,2.2,5.2,4.5,7.4,3.4C1346.5,240.7,1345.2,243.1,1338.4,237.9L1338.4,237.9z"/>
		<path id="path2920" sodipodi:nodetypes="csscc" class="st27" d="M1315,185.5c0,0-2.3-0.8-2.9-0.2c-0.7,0.7,0.2,2,0.4,3.1
			c0.3,1.6,0.9,1.1,2.1,1.3C1315,188.3,1316.5,187.8,1315,185.5L1315,185.5z"/>
	</g>
	<g id="layer2" transform="translate(-46.898 24.986)" inkscape:label="2" inkscape:groupmode="layer">
		<path id="path4876_9_" sodipodi:nodetypes="ccc" class="st1" d="M1128.1,360c7.2-1.3,10.2-2.9,10.2-2.9l11.8-6.6"/>
		<path id="path5759_9_" sodipodi:nodetypes="cssc" inkscape:transform-center-y="11.554535" class="st2" d="M1106.2,349.2
			c-0.1-1.4-0.7-1.1-0.6-2c0.2-1.8,0.8-2.1,1.5,0.4C1107.9,350.3,1111.4,354,1106.2,349.2z"/>
		<path id="path4874_9_" sodipodi:nodetypes="ccc" class="st1" d="M1127.6,359.9c-8.3,1.2-13.1,2.6-13.1,2.6s-2-0.8-5.9-11.6"/>
		
			<path id="path5761_9_" sodipodi:nodetypes="cssc" inkscape:transform-center-y="15.851465" inkscape:transform-center-x="-18.154331" class="st2" d="
			M1153.5,349.1c1.6-0.2,3.1-1.2,2.7-0.5s-1.5,3-3.3,2.2C1151,350,1147.7,351.2,1153.5,349.1L1153.5,349.1z"/>
		<path id="path3077_9_" sodipodi:nodetypes="ccssc" class="st12" d="M1125.9,357.5c0.4,0.8,0.4,0.1,1.2,0.7
			c2,3.7,14.2,18.1,13.6,18.6c-2.2,2.1-12.2-14.4-13.8-19C1126.7,357.2,1126.2,358.1,1125.9,357.5L1125.9,357.5z"/>
		
			<path id="path3075_9_" sodipodi:start="3.9561603" sodipodi:end="10.226379" sodipodi:cx="452.85715" sodipodi:cy="380.21933" sodipodi:open="true" sodipodi:type="arc" sodipodi:ry="25" sodipodi:rx="12.857142" class="st21" d="
			M1116.9,345.4c0-3.7,2.6-4.9,5.8-2.6c3.2,2.3,5.8,7.2,5.9,10.9c0,3.7-2.6,4.9-5.8,2.6C1119.5,354,1116.9,349.2,1116.9,345.4"/>
		
			<path id="path4835_9_" sodipodi:start="3.9561603" sodipodi:end="10.226379" sodipodi:cx="295.71429" sodipodi:cy="372.00504" sodipodi:open="true" sodipodi:type="arc" sodipodi:ry="4.6428571" sodipodi:rx="3.5714285" class="st22" d="
			M1120.1,347.4c0-0.8,0.6-1.1,1.4-0.9c0.7,0.3,1.3,1.1,1.3,1.9s-0.6,1.1-1.4,0.9C1120.6,349,1120.1,348.2,1120.1,347.4"/>
		<path id="path4837_9_" sodipodi:nodetypes="cc" class="st8" d="M1127.2,352.6c-1.1-0.7-2.9,0.7-2.4,2.1"/>
		
			<path id="path4835-8" sodipodi:start="3.9561603" sodipodi:end="10.226379" sodipodi:cx="295.71429" sodipodi:cy="372.00504" sodipodi:open="true" sodipodi:type="arc" sodipodi:ry="4.6428571" sodipodi:rx="3.5714285" class="st22" d="
			M1123.1,346c0-0.8,0.6-1.1,1.4-0.9s1.3,1.1,1.3,1.9s-0.6,1.1-1.4,0.9C1123.6,347.6,1123.1,346.7,1123.1,346"/>
		<path id="path4837-4" sodipodi:nodetypes="cc" class="st8" d="M1124.7,354.7c1.1,0.7,2.9-0.7,2.4-2.1"/>
	</g>
</g>
<rect x="192.8" y="358.2" class="st28" width="86" height="82"/>
<g class="st29">
	<path class="st30" d="M188,384.7v-22.9h4.6l5.4,16.2c0.5,1.5,0.9,2.6,1.1,3.4c0.3-0.8,0.7-2.1,1.2-3.7l5.5-15.9h4.1v22.9H207v-19.2
		l-6.7,19.2h-2.7l-6.6-19.5v19.5H188z"/>
	<path class="st30" d="M214.7,384.7v-22.9h3V382H229v2.7H214.7z"/>
	<path class="st30" d="M232.5,384.7v-22.9h4.6l5.4,16.2c0.5,1.5,0.9,2.6,1.1,3.4c0.3-0.8,0.7-2.1,1.2-3.7l5.5-15.9h4.1v22.9h-2.9
		v-19.2l-6.7,19.2H242l-6.6-19.5v19.5H232.5z"/>
	<path class="st30" d="M275.6,376.7l3,0.8c-0.6,2.5-1.8,4.4-3.4,5.7c-1.7,1.3-3.7,2-6.1,2c-2.5,0-4.5-0.5-6-1.5
		c-1.5-1-2.7-2.5-3.5-4.4c-0.8-1.9-1.2-4-1.2-6.1c0-2.4,0.5-4.5,1.4-6.2c0.9-1.8,2.2-3.1,3.9-4c1.7-0.9,3.5-1.4,5.6-1.4
		c2.3,0,4.2,0.6,5.8,1.8c1.6,1.2,2.7,2.8,3.3,4.9l-3,0.7c-0.5-1.7-1.3-2.9-2.3-3.6c-1-0.8-2.3-1.1-3.8-1.1c-1.8,0-3.2,0.4-4.4,1.3
		c-1.2,0.8-2,2-2.5,3.4c-0.5,1.4-0.7,2.9-0.7,4.4c0,1.9,0.3,3.6,0.9,5.1c0.6,1.5,1.5,2.5,2.6,3.3c1.2,0.7,2.5,1.1,3.9,1.1
		c1.7,0,3.1-0.5,4.3-1.5C274.4,380.1,275.2,378.6,275.6,376.7z"/>
</g>
<g class="st29">
	<path class="st30" d="M200,404.9l3.3-8.6h1.2l3.5,8.6h-1.3l-1-2.6h-3.6l-0.9,2.6H200z M202.5,401.4h2.9l-0.9-2.4
		c-0.3-0.7-0.5-1.3-0.6-1.8c-0.1,0.6-0.3,1.1-0.5,1.6L202.5,401.4z"/>
	<path class="st30" d="M212.9,404.9v-0.8c-0.4,0.6-1,0.9-1.7,0.9c-0.5,0-1-0.1-1.4-0.4s-0.7-0.7-1-1.1s-0.3-1.1-0.3-1.7
		c0-0.6,0.1-1.2,0.3-1.7s0.5-0.9,0.9-1.2s0.9-0.4,1.4-0.4c0.4,0,0.7,0.1,1,0.2s0.5,0.4,0.7,0.6v-3.1h1v8.6H212.9z M209.6,401.8
		c0,0.8,0.2,1.4,0.5,1.8s0.7,0.6,1.2,0.6c0.5,0,0.9-0.2,1.2-0.6s0.5-1,0.5-1.7c0-0.9-0.2-1.5-0.5-1.9s-0.7-0.6-1.2-0.6
		c-0.5,0-0.9,0.2-1.2,0.6S209.6,401,209.6,401.8z"/>
	<path class="st30" d="M217.3,404.9l-2.4-6.2h1.1l1.3,3.7c0.1,0.4,0.3,0.8,0.4,1.3c0.1-0.3,0.2-0.7,0.4-1.2l1.4-3.8h1.1l-2.4,6.2
		H217.3z"/>
	<path class="st30" d="M225.6,404.1c-0.4,0.3-0.8,0.6-1.1,0.7s-0.7,0.2-1.2,0.2c-0.7,0-1.2-0.2-1.6-0.5s-0.6-0.8-0.6-1.3
		c0-0.3,0.1-0.6,0.2-0.8s0.3-0.5,0.5-0.6s0.5-0.3,0.8-0.3c0.2-0.1,0.5-0.1,0.9-0.2c0.9-0.1,1.5-0.2,1.9-0.4c0-0.1,0-0.2,0-0.3
		c0-0.4-0.1-0.7-0.3-0.9c-0.3-0.2-0.7-0.4-1.2-0.4c-0.5,0-0.9,0.1-1.1,0.3s-0.4,0.5-0.5,0.9l-1-0.1c0.1-0.4,0.2-0.8,0.5-1.1
		s0.5-0.5,0.9-0.6s0.9-0.2,1.4-0.2c0.5,0,1,0.1,1.3,0.2s0.6,0.3,0.7,0.5s0.3,0.4,0.3,0.7c0,0.2,0.1,0.5,0.1,1v1.4c0,1,0,1.6,0.1,1.9
		s0.1,0.5,0.3,0.7h-1.1C225.7,404.7,225.6,404.4,225.6,404.1z M225.5,401.8c-0.4,0.2-1,0.3-1.7,0.4c-0.4,0.1-0.7,0.1-0.9,0.2
		s-0.3,0.2-0.4,0.3s-0.1,0.3-0.1,0.5c0,0.3,0.1,0.5,0.3,0.7s0.5,0.3,0.9,0.3c0.4,0,0.8-0.1,1.1-0.3s0.5-0.4,0.7-0.7
		c0.1-0.2,0.2-0.6,0.2-1.1V401.8z"/>
	<path class="st30" d="M228.2,404.9v-6.2h0.9v0.9c0.5-0.7,1.1-1,2-1c0.4,0,0.7,0.1,1,0.2s0.5,0.3,0.7,0.5s0.3,0.5,0.3,0.8
		c0,0.2,0.1,0.5,0.1,1v3.8h-1.1v-3.8c0-0.4,0-0.8-0.1-1s-0.2-0.4-0.4-0.5s-0.5-0.2-0.7-0.2c-0.4,0-0.8,0.1-1.2,0.4s-0.5,0.8-0.5,1.6
		v3.4H228.2z"/>
	<path class="st30" d="M238.9,402.6l1,0.1c-0.1,0.7-0.4,1.3-0.9,1.7s-1,0.6-1.7,0.6c-0.9,0-1.5-0.3-2.1-0.8s-0.8-1.4-0.8-2.4
		c0-0.7,0.1-1.3,0.3-1.8s0.6-0.9,1-1.1s1-0.4,1.5-0.4c0.7,0,1.2,0.2,1.7,0.5s0.7,0.8,0.8,1.5l-1,0.2c-0.1-0.4-0.3-0.7-0.5-0.9
		s-0.5-0.3-0.9-0.3c-0.5,0-1,0.2-1.3,0.6s-0.5,1-0.5,1.8c0,0.8,0.2,1.4,0.5,1.8s0.7,0.6,1.3,0.6c0.4,0,0.8-0.1,1-0.4
		S238.9,403.2,238.9,402.6z"/>
	<path class="st30" d="M245.1,402.9l1.1,0.1c-0.2,0.6-0.5,1.1-1,1.5s-1.1,0.5-1.8,0.5c-0.9,0-1.6-0.3-2.2-0.8s-0.8-1.3-0.8-2.4
		c0-1,0.3-1.9,0.8-2.4s1.2-0.9,2.1-0.9c0.8,0,1.5,0.3,2,0.8s0.8,1.4,0.8,2.4c0,0.1,0,0.2,0,0.3h-4.6c0,0.7,0.2,1.2,0.6,1.6
		s0.8,0.5,1.3,0.5c0.4,0,0.7-0.1,1-0.3S245,403.4,245.1,402.9z M241.7,401.2h3.5c0-0.5-0.2-0.9-0.4-1.2c-0.3-0.4-0.8-0.6-1.3-0.6
		c-0.5,0-0.9,0.2-1.2,0.5S241.7,400.7,241.7,401.2z"/>
	<path class="st30" d="M247.1,403.1l1-0.2c0.1,0.4,0.2,0.7,0.5,1s0.6,0.3,1.1,0.3c0.5,0,0.8-0.1,1.1-0.3s0.4-0.4,0.4-0.7
		c0-0.2-0.1-0.4-0.3-0.6c-0.1-0.1-0.5-0.2-1.1-0.4c-0.8-0.2-1.3-0.4-1.6-0.5s-0.5-0.3-0.7-0.6s-0.2-0.5-0.2-0.8
		c0-0.3,0.1-0.5,0.2-0.8s0.3-0.4,0.5-0.6c0.2-0.1,0.4-0.2,0.7-0.3s0.6-0.1,0.9-0.1c0.5,0,0.9,0.1,1.3,0.2s0.6,0.3,0.8,0.6
		s0.3,0.6,0.4,1l-1,0.1c0-0.3-0.2-0.6-0.4-0.8s-0.5-0.3-1-0.3c-0.5,0-0.8,0.1-1,0.2s-0.3,0.3-0.3,0.6c0,0.1,0,0.3,0.1,0.4
		c0.1,0.1,0.2,0.2,0.4,0.3c0.1,0,0.4,0.1,0.9,0.3c0.7,0.2,1.3,0.4,1.6,0.5s0.5,0.3,0.7,0.6s0.3,0.5,0.3,0.9c0,0.4-0.1,0.7-0.3,1
		s-0.5,0.6-0.9,0.7s-0.8,0.3-1.3,0.3c-0.8,0-1.4-0.2-1.8-0.5S247.2,403.7,247.1,403.1z"/>
	<path class="st30" d="M256.9,397.5v-1.2h1.1v1.2H256.9z M256.9,404.9v-6.2h1.1v6.2H256.9z"/>
	<path class="st30" d="M259.5,404.9v-6.2h0.9v0.9c0.5-0.7,1.1-1,2-1c0.4,0,0.7,0.1,1,0.2s0.5,0.3,0.7,0.5s0.3,0.5,0.3,0.8
		c0,0.2,0.1,0.5,0.1,1v3.8h-1.1v-3.8c0-0.4,0-0.8-0.1-1s-0.2-0.4-0.4-0.5s-0.5-0.2-0.7-0.2c-0.4,0-0.8,0.1-1.2,0.4s-0.5,0.8-0.5,1.6
		v3.4H259.5z"/>
</g>
<g class="st29">
	<path class="st30" d="M193.2,419.3v-8.6h1.7l2,6.1c0.2,0.6,0.3,1,0.4,1.3c0.1-0.3,0.3-0.8,0.5-1.4l2.1-6h1.5v8.6h-1.1v-7.2
		l-2.5,7.2h-1l-2.5-7.3v7.3H193.2z"/>
	<path class="st30" d="M202.7,416.2c0-1.2,0.3-2,1-2.6c0.5-0.5,1.2-0.7,2-0.7c0.9,0,1.6,0.3,2.1,0.8s0.8,1.3,0.8,2.3
		c0,0.8-0.1,1.4-0.4,1.9s-0.6,0.8-1,1.1s-1,0.4-1.5,0.4c-0.9,0-1.6-0.3-2.1-0.8S202.7,417.3,202.7,416.2z M203.8,416.2
		c0,0.8,0.2,1.4,0.5,1.8s0.8,0.6,1.3,0.6c0.5,0,1-0.2,1.3-0.6s0.5-1,0.5-1.8c0-0.8-0.2-1.4-0.5-1.7s-0.8-0.6-1.3-0.6
		c-0.5,0-1,0.2-1.3,0.6S203.8,415.4,203.8,416.2z"/>
	<path class="st30" d="M212.1,418.4l0.2,0.9c-0.3,0.1-0.6,0.1-0.8,0.1c-0.4,0-0.7-0.1-0.9-0.2s-0.4-0.3-0.4-0.5s-0.1-0.6-0.1-1.2
		v-3.6h-0.8v-0.8h0.8v-1.5l1-0.6v2.2h1.1v0.8h-1.1v3.6c0,0.3,0,0.5,0.1,0.6s0.1,0.2,0.2,0.2s0.2,0.1,0.4,0.1
		C211.8,418.4,211.9,418.4,212.1,418.4z"/>
	<path class="st30" d="M212.8,416.2c0-1.2,0.3-2,1-2.6c0.5-0.5,1.2-0.7,2-0.7c0.9,0,1.6,0.3,2.1,0.8s0.8,1.3,0.8,2.3
		c0,0.8-0.1,1.4-0.4,1.9s-0.6,0.8-1,1.1s-1,0.4-1.5,0.4c-0.9,0-1.6-0.3-2.1-0.8S212.8,417.3,212.8,416.2z M213.8,416.2
		c0,0.8,0.2,1.4,0.5,1.8s0.8,0.6,1.3,0.6c0.5,0,1-0.2,1.3-0.6s0.5-1,0.5-1.8c0-0.8-0.2-1.4-0.5-1.7s-0.8-0.6-1.3-0.6
		c-0.5,0-1,0.2-1.3,0.6S213.8,415.4,213.8,416.2z"/>
	<path class="st30" d="M219.8,419.3v-6.2h0.9v0.9c0.2-0.4,0.5-0.7,0.7-0.9s0.4-0.2,0.7-0.2c0.4,0,0.7,0.1,1.1,0.3l-0.4,1
		c-0.3-0.2-0.5-0.2-0.8-0.2c-0.2,0-0.4,0.1-0.6,0.2s-0.3,0.3-0.4,0.6c-0.1,0.4-0.2,0.8-0.2,1.2v3.3H219.8z"/>
	<path class="st30" d="M227.2,419.3v-8.6h1.1v7.6h4.2v1H227.2z"/>
	<path class="st30" d="M238.1,417.3l1.1,0.1c-0.2,0.6-0.5,1.1-1,1.5s-1.1,0.5-1.8,0.5c-0.9,0-1.6-0.3-2.2-0.8s-0.8-1.3-0.8-2.4
		c0-1,0.3-1.9,0.8-2.4s1.2-0.9,2.1-0.9c0.8,0,1.5,0.3,2,0.8s0.8,1.4,0.8,2.4c0,0.1,0,0.2,0,0.3h-4.6c0,0.7,0.2,1.2,0.6,1.6
		s0.8,0.5,1.3,0.5c0.4,0,0.7-0.1,1-0.3S237.9,417.8,238.1,417.3z M234.6,415.6h3.5c0-0.5-0.2-0.9-0.4-1.2c-0.3-0.4-0.8-0.6-1.3-0.6
		c-0.5,0-0.9,0.2-1.2,0.5S234.7,415.1,234.6,415.6z"/>
	<path class="st30" d="M244.6,418.5c-0.4,0.3-0.8,0.6-1.1,0.7s-0.7,0.2-1.2,0.2c-0.7,0-1.2-0.2-1.6-0.5s-0.6-0.8-0.6-1.3
		c0-0.3,0.1-0.6,0.2-0.8s0.3-0.5,0.5-0.6s0.5-0.3,0.8-0.3c0.2-0.1,0.5-0.1,0.9-0.2c0.9-0.1,1.5-0.2,1.9-0.4c0-0.1,0-0.2,0-0.3
		c0-0.4-0.1-0.7-0.3-0.9c-0.3-0.2-0.7-0.4-1.2-0.4c-0.5,0-0.9,0.1-1.1,0.3s-0.4,0.5-0.5,0.9l-1-0.1c0.1-0.4,0.2-0.8,0.5-1.1
		s0.5-0.5,0.9-0.6s0.9-0.2,1.4-0.2c0.5,0,1,0.1,1.3,0.2s0.6,0.3,0.7,0.5s0.3,0.4,0.3,0.7c0,0.2,0.1,0.5,0.1,1v1.4c0,1,0,1.6,0.1,1.9
		s0.1,0.5,0.3,0.7h-1.1C244.7,419.1,244.6,418.8,244.6,418.5z M244.5,416.2c-0.4,0.2-1,0.3-1.7,0.4c-0.4,0.1-0.7,0.1-0.9,0.2
		s-0.3,0.2-0.4,0.3s-0.1,0.3-0.1,0.5c0,0.3,0.1,0.5,0.3,0.7s0.5,0.3,0.9,0.3c0.4,0,0.8-0.1,1.1-0.3s0.5-0.4,0.7-0.7
		c0.1-0.2,0.2-0.6,0.2-1.1V416.2z"/>
	<path class="st30" d="M247.2,419.3v-6.2h0.9v0.9c0.2-0.4,0.5-0.7,0.7-0.9s0.4-0.2,0.7-0.2c0.4,0,0.7,0.1,1.1,0.3l-0.4,1
		c-0.3-0.2-0.5-0.2-0.8-0.2c-0.2,0-0.4,0.1-0.6,0.2s-0.3,0.3-0.4,0.6c-0.1,0.4-0.2,0.8-0.2,1.2v3.3H247.2z"/>
	<path class="st30" d="M251.2,419.3v-6.2h0.9v0.9c0.5-0.7,1.1-1,2-1c0.4,0,0.7,0.1,1,0.2s0.5,0.3,0.7,0.5s0.3,0.5,0.3,0.8
		c0,0.2,0.1,0.5,0.1,1v3.8h-1.1v-3.8c0-0.4,0-0.8-0.1-1s-0.2-0.4-0.4-0.5s-0.5-0.2-0.7-0.2c-0.4,0-0.8,0.1-1.2,0.4s-0.5,0.8-0.5,1.6
		v3.4H251.2z"/>
	<path class="st30" d="M257.9,411.9v-1.2h1.1v1.2H257.9z M257.9,419.3v-6.2h1.1v6.2H257.9z"/>
	<path class="st30" d="M260.5,419.3v-6.2h0.9v0.9c0.5-0.7,1.1-1,2-1c0.4,0,0.7,0.1,1,0.2s0.5,0.3,0.7,0.5s0.3,0.5,0.3,0.8
		c0,0.2,0.1,0.5,0.1,1v3.8h-1.1v-3.8c0-0.4,0-0.8-0.1-1s-0.2-0.4-0.4-0.5s-0.5-0.2-0.7-0.2c-0.4,0-0.8,0.1-1.2,0.4s-0.5,0.8-0.5,1.6
		v3.4H260.5z"/>
	<path class="st30" d="M267,419.8l1,0.2c0,0.3,0.2,0.5,0.4,0.7c0.3,0.2,0.6,0.3,1.1,0.3c0.5,0,0.9-0.1,1.1-0.3s0.4-0.5,0.5-0.8
		c0.1-0.2,0.1-0.7,0.1-1.4c-0.5,0.5-1,0.8-1.7,0.8c-0.9,0-1.5-0.3-2-0.9s-0.7-1.4-0.7-2.2c0-0.6,0.1-1.1,0.3-1.6s0.5-0.9,0.9-1.2
		s0.9-0.4,1.4-0.4c0.7,0,1.3,0.3,1.8,0.9v-0.8h1v5.4c0,1-0.1,1.7-0.3,2.1s-0.5,0.7-0.9,1s-1,0.4-1.6,0.4c-0.7,0-1.3-0.2-1.8-0.5
		S267,420.5,267,419.8z M267.9,416.1c0,0.8,0.2,1.4,0.5,1.8s0.7,0.6,1.2,0.6c0.5,0,0.9-0.2,1.2-0.6s0.5-1,0.5-1.8
		c0-0.8-0.2-1.3-0.5-1.7s-0.7-0.6-1.2-0.6c-0.5,0-0.9,0.2-1.2,0.6S267.9,415.3,267.9,416.1z"/>
</g>
<g class="st29">
	<path class="st30" d="M196.5,432.7c-0.3,0.4-0.7,0.7-1.1,0.9s-0.9,0.3-1.3,0.3c-0.9,0-1.6-0.3-2.1-0.9c-0.4-0.5-0.6-1-0.6-1.6
		c0-0.5,0.2-1,0.5-1.4s0.9-0.8,1.5-1.1c-0.4-0.4-0.6-0.8-0.8-1.1s-0.2-0.5-0.2-0.8c0-0.5,0.2-1,0.6-1.3s0.9-0.6,1.5-0.6
		c0.6,0,1.1,0.2,1.4,0.5s0.6,0.8,0.6,1.3c0,0.8-0.5,1.5-1.6,2.1l1.5,2c0.2-0.3,0.3-0.7,0.4-1.2l1.1,0.2c-0.2,0.8-0.4,1.4-0.8,1.9
		c0.4,0.5,0.8,1,1.3,1.3l-0.7,0.8C197.3,433.6,196.9,433.2,196.5,432.7z M195.8,431.9l-1.9-2.4c-0.6,0.3-1,0.7-1.2,0.9
		s-0.3,0.6-0.3,0.9c0,0.3,0.1,0.7,0.4,1.1s0.7,0.6,1.2,0.6c0.3,0,0.6-0.1,1-0.3S195.6,432.2,195.8,431.9z M194.3,428.2
		c0.5-0.3,0.8-0.5,0.9-0.7s0.2-0.4,0.2-0.7c0-0.3-0.1-0.5-0.3-0.7s-0.4-0.3-0.7-0.3c-0.3,0-0.5,0.1-0.7,0.3s-0.3,0.4-0.3,0.7
		c0,0.1,0,0.3,0.1,0.4s0.2,0.3,0.3,0.5L194.3,428.2z"/>
	<path class="st30" d="M203,433.7v-8.6h1.7l2,6.1c0.2,0.6,0.3,1,0.4,1.3c0.1-0.3,0.3-0.8,0.5-1.4l2.1-6h1.5v8.6h-1.1v-7.2l-2.5,7.2
		h-1l-2.5-7.3v7.3H203z"/>
	<path class="st30" d="M212.5,430.6c0-1.2,0.3-2,1-2.6c0.5-0.5,1.2-0.7,2-0.7c0.9,0,1.6,0.3,2.1,0.8s0.8,1.3,0.8,2.3
		c0,0.8-0.1,1.4-0.4,1.9s-0.6,0.8-1,1.1s-1,0.4-1.5,0.4c-0.9,0-1.6-0.3-2.1-0.8S212.5,431.7,212.5,430.6z M213.6,430.6
		c0,0.8,0.2,1.4,0.5,1.8s0.8,0.6,1.3,0.6c0.5,0,1-0.2,1.3-0.6s0.5-1,0.5-1.8c0-0.8-0.2-1.4-0.5-1.7s-0.8-0.6-1.3-0.6
		c-0.5,0-1,0.2-1.3,0.6S213.6,429.8,213.6,430.6z"/>
	<path class="st30" d="M221.9,432.8l0.2,0.9c-0.3,0.1-0.6,0.1-0.8,0.1c-0.4,0-0.7-0.1-0.9-0.2s-0.4-0.3-0.4-0.5s-0.1-0.6-0.1-1.2
		v-3.6H219v-0.8h0.8V426l1-0.6v2.2h1.1v0.8h-1.1v3.6c0,0.3,0,0.5,0.1,0.6s0.1,0.2,0.2,0.2s0.2,0.1,0.4,0.1
		C221.5,432.8,221.7,432.8,221.9,432.8z"/>
	<path class="st30" d="M222.5,430.6c0-1.2,0.3-2,1-2.6c0.5-0.5,1.2-0.7,2-0.7c0.9,0,1.6,0.3,2.1,0.8s0.8,1.3,0.8,2.3
		c0,0.8-0.1,1.4-0.4,1.9s-0.6,0.8-1,1.1s-1,0.4-1.5,0.4c-0.9,0-1.6-0.3-2.1-0.8S222.5,431.7,222.5,430.6z M223.6,430.6
		c0,0.8,0.2,1.4,0.5,1.8s0.8,0.6,1.3,0.6c0.5,0,1-0.2,1.3-0.6s0.5-1,0.5-1.8c0-0.8-0.2-1.4-0.5-1.7s-0.8-0.6-1.3-0.6
		c-0.5,0-1,0.2-1.3,0.6S223.6,429.8,223.6,430.6z"/>
	<path class="st30" d="M229.5,433.7v-6.2h0.9v0.9c0.2-0.4,0.5-0.7,0.7-0.9s0.4-0.2,0.7-0.2c0.4,0,0.7,0.1,1.1,0.3l-0.4,1
		c-0.3-0.2-0.5-0.2-0.8-0.2c-0.2,0-0.4,0.1-0.6,0.2s-0.3,0.3-0.4,0.6c-0.1,0.4-0.2,0.8-0.2,1.2v3.3H229.5z"/>
	<path class="st30" d="M243.2,430.7l1.1,0.3c-0.2,0.9-0.7,1.6-1.3,2.1s-1.4,0.7-2.3,0.7c-0.9,0-1.7-0.2-2.3-0.6s-1-0.9-1.3-1.6
		s-0.5-1.5-0.5-2.3c0-0.9,0.2-1.7,0.5-2.3s0.8-1.2,1.5-1.5s1.3-0.5,2.1-0.5c0.9,0,1.6,0.2,2.2,0.7s1,1.1,1.2,1.8l-1.1,0.3
		c-0.2-0.6-0.5-1.1-0.9-1.4s-0.9-0.4-1.4-0.4c-0.7,0-1.2,0.2-1.7,0.5s-0.8,0.7-0.9,1.3s-0.3,1.1-0.3,1.6c0,0.7,0.1,1.4,0.3,1.9
		s0.5,1,1,1.2s0.9,0.4,1.5,0.4c0.6,0,1.2-0.2,1.6-0.6S243,431.4,243.2,430.7z"/>
	<path class="st30" d="M245.2,430.6c0-1.2,0.3-2,1-2.6c0.5-0.5,1.2-0.7,2-0.7c0.9,0,1.6,0.3,2.1,0.8s0.8,1.3,0.8,2.3
		c0,0.8-0.1,1.4-0.4,1.9s-0.6,0.8-1,1.1s-1,0.4-1.5,0.4c-0.9,0-1.6-0.3-2.1-0.8S245.2,431.7,245.2,430.6z M246.2,430.6
		c0,0.8,0.2,1.4,0.5,1.8s0.8,0.6,1.3,0.6c0.5,0,1-0.2,1.3-0.6s0.5-1,0.5-1.8c0-0.8-0.2-1.4-0.5-1.7s-0.8-0.6-1.3-0.6
		c-0.5,0-1,0.2-1.3,0.6S246.2,429.8,246.2,430.6z"/>
	<path class="st30" d="M252.2,433.7v-6.2h0.9v0.9c0.5-0.7,1.1-1,2-1c0.4,0,0.7,0.1,1,0.2s0.5,0.3,0.7,0.5s0.3,0.5,0.3,0.8
		c0,0.2,0.1,0.5,0.1,1v3.8h-1.1v-3.8c0-0.4,0-0.8-0.1-1s-0.2-0.4-0.4-0.5s-0.5-0.2-0.7-0.2c-0.4,0-0.8,0.1-1.2,0.4s-0.5,0.8-0.5,1.6
		v3.4H252.2z"/>
	<path class="st30" d="M261.2,432.8l0.2,0.9c-0.3,0.1-0.6,0.1-0.8,0.1c-0.4,0-0.7-0.1-0.9-0.2s-0.4-0.3-0.4-0.5s-0.1-0.6-0.1-1.2
		v-3.6h-0.8v-0.8h0.8V426l1-0.6v2.2h1.1v0.8h-1.1v3.6c0,0.3,0,0.5,0.1,0.6s0.1,0.2,0.2,0.2s0.2,0.1,0.4,0.1
		C260.9,432.8,261,432.8,261.2,432.8z"/>
	<path class="st30" d="M262.2,433.7v-6.2h0.9v0.9c0.2-0.4,0.5-0.7,0.7-0.9s0.4-0.2,0.7-0.2c0.4,0,0.7,0.1,1.1,0.3l-0.4,1
		c-0.3-0.2-0.5-0.2-0.8-0.2c-0.2,0-0.4,0.1-0.6,0.2s-0.3,0.3-0.4,0.6c-0.1,0.4-0.2,0.8-0.2,1.2v3.3H262.2z"/>
	<path class="st30" d="M265.8,430.6c0-1.2,0.3-2,1-2.6c0.5-0.5,1.2-0.7,2-0.7c0.9,0,1.6,0.3,2.1,0.8s0.8,1.3,0.8,2.3
		c0,0.8-0.1,1.4-0.4,1.9s-0.6,0.8-1,1.1s-1,0.4-1.5,0.4c-0.9,0-1.6-0.3-2.1-0.8S265.8,431.7,265.8,430.6z M266.9,430.6
		c0,0.8,0.2,1.4,0.5,1.8s0.8,0.6,1.3,0.6c0.5,0,1-0.2,1.3-0.6s0.5-1,0.5-1.8c0-0.8-0.2-1.4-0.5-1.7s-0.8-0.6-1.3-0.6
		c-0.5,0-1,0.2-1.3,0.6S266.9,429.8,266.9,430.6z"/>
	<path class="st30" d="M272.9,433.7v-8.6h1.1v8.6H272.9z"/>
</g>
<linearGradient id="path6737_21_" gradientUnits="userSpaceOnUse" x1="956.8937" y1="352.9565" x2="982.6248" y2="352.9565" gradientTransform="matrix(3.5685 0 0 -3.5685 -2360.8867 1688.9697)">
	<stop  offset="0" style="stop-color:#000000"/>
	<stop  offset="1" style="stop-color:#000000;stop-opacity:0"/>
</linearGradient>
<path id="path6737_10_" sodipodi:nodetypes="ccccccccccccccccc" class="st31" d="M1081.1,425.7c11.8,0.8-12.6,1-14.1,1.1
	c-7.6-0.3,16,0.6,24.2,0.9c17.2,1.1-23.1,0.5-25.3,0.6c0.7-1.9,31.5-2.1,23.2,0.3c-13.1,3.1-10.8,1.9,1.9,2.5
	c7.7,0.5,13.9-0.7,21.2-1c0.3,0.7,0.7,1.3,2.2,2.4c-3.5-0.1-3.6-0.3-9.9-0.2c-6.8-0.4-23.2,1.2-20.2,0.7c14.2-0.5-31.7,2.6-1.4-4.5
	c6-1.3-29.2,0.9-10.8-1.3c7.6,0,40.3,0.4,13.9,1.6c-9.4-0.4-43.1-1.4-13.2-3c13.8-0.3,17.6,0.9,2.3,1L1081.1,425.7L1081.1,425.7
	L1081.1,425.7z"/>
</svg>
